<?xml version="1.0" encoding="UTF-8" standalone="no"?>
<svg
   xmlns:dc="http://purl.org/dc/elements/1.1/"
   xmlns:cc="http://creativecommons.org/ns#"
   xmlns:rdf="http://www.w3.org/1999/02/22-rdf-syntax-ns#"
   xmlns:svg="http://www.w3.org/2000/svg"
   xmlns="http://www.w3.org/2000/svg"
   viewBox="-20 -1500 3000 2250"
   xml:space="preserve"
   id="svg2"
   version="1.1">
 <metadata id="metadata8">
  <rdf:RDF>
    <cc:Work rdf:about="">
      <dc:format>image/svg+xml</dc:format>
      <dc:type rdf:resource="http://purl.org/dc/dcmitype/StillImage" />
    </cc:Work>
  </rdf:RDF>
</metadata>
<g transform="matrix(1.3333333,0,0,-1.3333333,0,389.33333)" id="g12">
  <path id="path26" style="fill-rule:nonzero;stroke:none"
   d="m 1507.24,369.57 c 0,0 -10.08,35.723 27.48,104.422 37.55,68.696 66.86,31.141 66.86,31.141 0,0 32.06,-34.805 -4.58,-87.016 -36.63,-52.211 -89.76,-48.547 -89.76,-48.547 z m -288.53,-49.461 c -43.05,-112.664 -147.47,-66.863 -147.47,-66.863 0,0 -11.9,40.301 21.99,152.965 33.89,112.66 113.57,68.695 113.57,68.695 0,0 54.96,-42.133 11.91,-154.797 z m -77.85,471.719 c 0,0 65.03,169.453 80.6,87.016 15.57,-82.438 -136.48,-327.914 -136.48,-327.914 1.84,54.961 55.88,240.898 55.88,240.898 z M 211.156,369.57 c 2.746,109 74.192,156.629 98.922,132.817 24.731,-23.817 15.574,-75.11 -31.14,-107.168 C 232.223,363.16 211.156,369.57 211.156,369.57 Z m 1970.234,18.09 c -3.67,36.637 -36.64,23.016 -36.64,23.016 0,0 -53.13,-41.172 -99.84,-36.586 -46.71,4.582 -32.06,109.031 -32.06,109.031 0,0 10.08,95.715 -17.4,103.738 -27.48,8.024 -61.37,-24.945 -61.37,-24.945 0,0 -42.14,-46.711 -62.29,-106.246 l -5.49,-1.832 c 0,0 6.41,104.422 -0.92,128.238 -5.5,11.906 -55.87,10.992 -64.12,-10.074 -8.24,-21.07 -48.54,-167.621 -51.29,-228.992 0,0 -78.77,-66.863 -147.47,-77.856 -68.7,-10.992 -85.18,32.059 -85.18,32.059 0,0 186.85,52.211 180.44,201.512 -6.41,149.3 -150.67,94.097 -167.01,81.824 -15.79,-11.867 -100.12,-62.738 -124.71,-203.567 -0.84,-4.804 -2.3,-25.726 -2.3,-25.726 0,0 -72.36,-48.547 -112.67,-61.371 0,0 112.67,189.601 -24.73,275.703 -62.28,37.555 -111.74,-41.219 -111.74,-41.219 0,0 185.94,207.008 144.72,381.957 -19.63,83.309 -61.28,92.262 -99.52,78.781 -58.03,-22.91 -80.01,-56.8 -80.01,-56.8 0,0 -75.11,-108.996 -92.51,-271.121 -17.4,-162.125 -43.053,-358.141 -43.053,-358.141 0,0 -35.723,-34.809 -68.696,-36.641 -32.976,-1.832 -18.32,98.008 -18.32,98.008 0,0 25.648,152.051 23.816,177.699 -1.832,25.645 -3.664,39.383 -33.89,48.543 -30.227,9.16 -63.203,-29.308 -63.203,-29.308 0,0 -87.016,-131.899 -94.344,-152.051 l -4.578,-8.242 -4.582,5.496 c 0,0 61.371,179.527 2.75,182.273 -58.621,2.75 -97.094,-64.117 -97.094,-64.117 0,0 -66.863,-111.746 -69.613,-124.57 l -4.578,5.496 c 0,0 27.48,130.066 21.984,162.125 -5.496,32.058 -35.723,25.648 -35.723,25.648 0,0 -38.472,4.578 -48.547,-20.152 -10.074,-24.73 -46.714,-188.688 -51.293,-240.898 0,0 -96.179,-68.696 -159.378,-69.614 -63.204,-0.914 -56.79,40.078 -56.79,40.078 0,0 231.739,79.344 168.54,235.973 -28.399,40.301 -61.372,52.953 -108.086,52.035 C 235.887,585.91 179.285,557.426 141.73,473.16 123.805,432.941 118.645,394.824 114.98,365.938 v 0.011 c 0,0 -41.9488,-8.285 -63.9292,10.035 -21.9844,18.317 -33.9844,0 -33.9844,0 0,0 -38.0586,-47.402 -0.5039,-62.054 37.5508,-14.657 95.8245,-20.825 95.8245,-20.825 h -0.039 c 5.382,-25.644 21.047,-69.894 66.769,-104.64 68.695,-52.211 200.586,4.449 200.586,4.449 l 54.035,30.164 c 0,0 1.828,-49.668 41.215,-56.906 39.387,-7.238 55.875,0.07 124.57,166.777 40.305,85.184 43.051,80.594 43.051,80.594 l 4.582,0.914 c 0,0 -31.144,-163.043 -19.238,-207.012 11.91,-43.965 64.117,-39.383 64.117,-39.383 0,0 28.395,-4.8 51.297,75.801 22.898,80.606 66.863,170.149 66.863,170.149 h 5.496 c 0,0 -19.234,-167.399 10.075,-220.524 29.312,-53.125 105.336,-18.211 105.336,-18.211 0,0 53.125,26.618 61.371,34.864 0,0 63.067,-53.735 151.987,-44.028 198.83,39.133 269.54,91.93 269.54,91.93 0,0 34.16,-86.555 139.95,-94.57 120.91,-9.161 186.86,66.867 186.86,66.867 0,0 -0.92,-49.461 41.22,-66.863 42.13,-17.403 70.52,81.078 70.52,81.078 l 70.54,195.105 h 6.41 c 0,0 3.66,-127.098 73.27,-147.25 69.62,-20.152 160.3,46.824 160.3,46.824 0,0 21.98,11.786 18.32,48.426" />
   <g transform="scale(3.66384)" id="g28">
    <text id="text32" style="font-variant:normal;font-weight:normal;font-size:40px;font-family:MyriadPro;-inkscape-font-specification:MyriadPro-Regular;writing-mode:lr-tb;fill-rule:nonzero;stroke:none" transform="matrix(1,0,0,-1,505.5,31.6235)">
      <tspan id="tspan30" y="0" x="0">®</tspan>
    </text>
  </g>
</g>
</svg>