<?xml version="1.0" encoding="UTF-8" standalone="no"?>
<svg
   xmlns:dc="http://purl.org/dc/elements/1.1/"
   xmlns:cc="http://creativecommons.org/ns#"
   xmlns:rdf="http://www.w3.org/1999/02/22-rdf-syntax-ns#"
   xmlns:svg="http://www.w3.org/2000/svg"
   xmlns="http://www.w3.org/2000/svg"
   viewBox="0 0 5337.8398 389.33334"
   height="389.33334"
   width="5337.8398"
   xml:space="preserve"
   id="svg2"
   version="1.1"><metadata
     id="metadata8"><rdf:RDF><cc:Work
         rdf:about=""><dc:format>image/svg+xml</dc:format><dc:type
           rdf:resource="http://purl.org/dc/dcmitype/StillImage" /></cc:Work></rdf:RDF></metadata><defs
     id="defs6"><clipPath
       id="clipPath20"
       clipPathUnits="userSpaceOnUse"><path
         id="path18"
         d="M 0,1069.84 V 0 h 14667.7 v 1069.84 z" /></clipPath></defs><g
     transform="matrix(1.3333333,0,0,-1.3333333,0,389.33333)"
     id="g10"><g
       transform="scale(0.272938)"
       id="g12"><g
         id="g14"><g
           clip-path="url(#clipPath20)"
           id="g16"><path
             id="path22"
             style="fill:#100f0d;fill-opacity:1;fill-rule:nonzero;stroke:none"
             d="M 2359.08,5.49609 H 4766.21 V 1068.0061 H 2359.08 Z" /><path
             id="path24"
             style="fill:none;stroke:#100f0d;stroke-width:3.66384006;stroke-linecap:butt;stroke-linejoin:miter;stroke-miterlimit:10;stroke-dasharray:none;stroke-opacity:1"
             d="M 2359.08,5.49609 H 4766.21 V 1068.0061 H 2359.08 Z" /><path
             id="path26"
             style="fill:#e3392c;fill-opacity:1;fill-rule:nonzero;stroke:none"
             d="m 1507.24,369.57 c 0,0 -10.08,35.723 27.48,104.422 37.55,68.696 66.86,31.141 66.86,31.141 0,0 32.06,-34.805 -4.58,-87.016 -36.63,-52.211 -89.76,-48.547 -89.76,-48.547 z m -288.53,-49.461 c -43.05,-112.664 -147.47,-66.863 -147.47,-66.863 0,0 -11.9,40.301 21.99,152.965 33.89,112.66 113.57,68.695 113.57,68.695 0,0 54.96,-42.133 11.91,-154.797 z m -77.85,471.719 c 0,0 65.03,169.453 80.6,87.016 15.57,-82.438 -136.48,-327.914 -136.48,-327.914 1.84,54.961 55.88,240.898 55.88,240.898 z M 211.156,369.57 c 2.746,109 74.192,156.629 98.922,132.817 24.731,-23.817 15.574,-75.11 -31.14,-107.168 C 232.223,363.16 211.156,369.57 211.156,369.57 Z m 1970.234,18.09 c -3.67,36.637 -36.64,23.016 -36.64,23.016 0,0 -53.13,-41.172 -99.84,-36.586 -46.71,4.582 -32.06,109.031 -32.06,109.031 0,0 10.08,95.715 -17.4,103.738 -27.48,8.024 -61.37,-24.945 -61.37,-24.945 0,0 -42.14,-46.711 -62.29,-106.246 l -5.49,-1.832 c 0,0 6.41,104.422 -0.92,128.238 -5.5,11.906 -55.87,10.992 -64.12,-10.074 -8.24,-21.07 -48.54,-167.621 -51.29,-228.992 0,0 -78.77,-66.863 -147.47,-77.856 -68.7,-10.992 -85.18,32.059 -85.18,32.059 0,0 186.85,52.211 180.44,201.512 -6.41,149.3 -150.67,94.097 -167.01,81.824 -15.79,-11.867 -100.12,-62.738 -124.71,-203.567 -0.84,-4.804 -2.3,-25.726 -2.3,-25.726 0,0 -72.36,-48.547 -112.67,-61.371 0,0 112.67,189.601 -24.73,275.703 -62.28,37.555 -111.74,-41.219 -111.74,-41.219 0,0 185.94,207.008 144.72,381.957 -19.63,83.309 -61.28,92.262 -99.52,78.781 -58.03,-22.91 -80.01,-56.8 -80.01,-56.8 0,0 -75.11,-108.996 -92.51,-271.121 -17.4,-162.125 -43.053,-358.141 -43.053,-358.141 0,0 -35.723,-34.809 -68.696,-36.641 -32.976,-1.832 -18.32,98.008 -18.32,98.008 0,0 25.648,152.051 23.816,177.699 -1.832,25.645 -3.664,39.383 -33.89,48.543 -30.227,9.16 -63.203,-29.308 -63.203,-29.308 0,0 -87.016,-131.899 -94.344,-152.051 l -4.578,-8.242 -4.582,5.496 c 0,0 61.371,179.527 2.75,182.273 -58.621,2.75 -97.094,-64.117 -97.094,-64.117 0,0 -66.863,-111.746 -69.613,-124.57 l -4.578,5.496 c 0,0 27.48,130.066 21.984,162.125 -5.496,32.058 -35.723,25.648 -35.723,25.648 0,0 -38.472,4.578 -48.547,-20.152 -10.074,-24.73 -46.714,-188.688 -51.293,-240.898 0,0 -96.179,-68.696 -159.378,-69.614 -63.204,-0.914 -56.79,40.078 -56.79,40.078 0,0 231.739,79.344 168.54,235.973 -28.399,40.301 -61.372,52.953 -108.086,52.035 C 235.887,585.91 179.285,557.426 141.73,473.16 123.805,432.941 118.645,394.824 114.98,365.938 v 0.011 c 0,0 -41.9488,-8.285 -63.9292,10.035 -21.9844,18.317 -33.9844,0 -33.9844,0 0,0 -38.0586,-47.402 -0.5039,-62.054 37.5508,-14.657 95.8245,-20.825 95.8245,-20.825 h -0.039 c 5.382,-25.644 21.047,-69.894 66.769,-104.64 68.695,-52.211 200.586,4.449 200.586,4.449 l 54.035,30.164 c 0,0 1.828,-49.668 41.215,-56.906 39.387,-7.238 55.875,0.07 124.57,166.777 40.305,85.184 43.051,80.594 43.051,80.594 l 4.582,0.914 c 0,0 -31.144,-163.043 -19.238,-207.012 11.91,-43.965 64.117,-39.383 64.117,-39.383 0,0 28.395,-4.8 51.297,75.801 22.898,80.606 66.863,170.149 66.863,170.149 h 5.496 c 0,0 -19.234,-167.399 10.075,-220.524 29.312,-53.125 105.336,-18.211 105.336,-18.211 0,0 53.125,26.618 61.371,34.864 0,0 63.067,-53.735 151.987,-44.028 198.83,39.133 269.54,91.93 269.54,91.93 0,0 34.16,-86.555 139.95,-94.57 120.91,-9.161 186.86,66.867 186.86,66.867 0,0 -0.92,-49.461 41.22,-66.863 42.13,-17.403 70.52,81.078 70.52,81.078 l 70.54,195.105 h 6.41 c 0,0 3.66,-127.098 73.27,-147.25 69.62,-20.152 160.3,46.824 160.3,46.824 0,0 21.98,11.786 18.32,48.426" /><g
             transform="scale(3.66384)"
             id="g28"><text
               id="text32"
               style="font-variant:normal;font-weight:normal;font-size:40px;font-family:MyriadPro;-inkscape-font-specification:MyriadPro-Regular;writing-mode:lr-tb;fill:#e3392c;fill-opacity:1;fill-rule:nonzero;stroke:none"
               transform="matrix(1,0,0,-1,505.5,31.6235)"><tspan
                 id="tspan30"
                 y="0"
                 x="0">®</tspan></text>
</g><path
             id="path34"
             style="fill:#e3392c;fill-opacity:1;fill-rule:nonzero;stroke:none"
             d="m 3981.89,369.57 c 0,0 -10.07,35.723 27.48,104.422 37.56,68.696 66.87,31.141 66.87,31.141 0,0 32.06,-34.805 -4.58,-87.016 -36.64,-52.211 -89.77,-48.547 -89.77,-48.547 z m -288.52,-49.461 c -43.03,-112.664 -147.46,-66.863 -147.46,-66.863 0,0 -11.9,40.301 21.99,152.965 33.89,112.66 113.56,68.695 113.56,68.695 0,0 54.96,-42.133 11.91,-154.797 z m -77.84,471.719 c 0,0 65.01,169.453 80.58,87.016 15.58,-82.434 -136.45,-327.914 -136.45,-327.914 1.83,54.961 55.87,240.898 55.87,240.898 z M 2685.83,369.57 c 2.75,109 74.19,156.629 98.92,132.817 24.73,-23.817 15.57,-75.11 -31.14,-107.168 -46.71,-32.059 -67.78,-25.649 -67.78,-25.649 z m 1970.21,18.094 c -3.66,36.637 -36.64,23.012 -36.64,23.012 0,0 -53.12,-41.168 -99.84,-36.582 -46.71,4.582 -32.06,109.027 -32.06,109.027 0,0 10.08,95.715 -17.4,103.738 -27.48,8.024 -61.37,-24.945 -61.37,-24.945 0,0 -42.13,-46.711 -62.28,-106.246 l -5.5,-1.828 c 0,0 6.41,104.418 -0.91,128.234 -5.5,11.906 -55.88,10.992 -64.12,-10.074 -8.25,-21.07 -48.55,-167.621 -51.3,-228.992 0,0 -78.77,-66.863 -147.47,-77.856 -68.69,-10.992 -85.18,32.059 -85.18,32.059 0,0 186.85,52.211 180.44,201.512 -6.41,149.3 -150.65,94.097 -167,81.824 -15.79,-11.867 -100.09,-62.738 -124.71,-203.563 -0.84,-4.808 -2.31,-25.73 -2.31,-25.73 0,0 -72.36,-48.547 -112.66,-61.371 0,0 112.66,189.601 -24.73,275.703 -62.29,37.555 -111.73,-41.219 -111.73,-41.219 0,0 185.92,207.008 144.7,381.957 -19.6,83.309 -61.26,92.262 -99.51,78.781 -58.01,-22.906 -80,-56.796 -80,-56.796 0,0 -75.11,-109 -92.51,-271.125 -17.4,-162.125 -43.05,-358.141 -43.05,-358.141 0,0 -35.72,-34.809 -68.7,-36.641 -32.97,-1.832 -18.32,98.008 -18.32,98.008 0,0 25.65,152.051 23.82,177.699 -1.83,25.645 -3.66,39.383 -33.89,48.543 -30.23,9.16 -63.2,-29.308 -63.2,-29.308 0,0 -87.02,-131.899 -94.35,-152.051 l -4.58,-8.242 -4.58,5.496 c 0,0 61.37,179.527 2.75,182.273 -58.62,2.75 -97.09,-64.117 -97.09,-64.117 0,0 -66.87,-111.746 -69.61,-124.57 l -4.58,5.496 c 0,0 27.48,130.066 21.98,162.125 -5.5,32.058 -35.72,25.648 -35.72,25.648 0,0 -38.47,4.578 -48.55,-20.152 -10.07,-24.73 -46.71,-188.688 -51.29,-240.898 0,0 -96.18,-68.696 -159.38,-69.614 -63.2,-0.914 -56.79,40.082 -56.79,40.082 0,0 231.74,79.34 168.54,235.969 -28.4,40.301 -61.37,52.957 -108.09,52.039 -46.71,-0.914 -104.11,-29.398 -141.66,-113.664 -17.92,-40.223 -23.88,-78.34 -27.54,-107.226 v 0.011 c 0,0 -41.16,-8.285 -63.14,10.035 -21.98,18.317 -33.59,0 -33.59,0 0,0 -37.86,-47.402 -0.3,-62.054 37.55,-14.657 96.02,-20.825 96.02,-20.825 h -0.04 c 5.39,-25.644 21.05,-69.894 66.77,-104.64 68.7,-52.211 200.59,4.453 200.59,4.453 l 54.03,30.16 c 0,0 1.83,-49.668 41.21,-56.906 39.39,-7.238 55.88,0.07 124.58,166.777 40.3,85.188 43.05,80.594 43.05,80.594 l 4.58,0.914 c 0,0 -31.15,-163.039 -19.24,-207.008 11.91,-43.965 64.12,-39.387 64.12,-39.387 0,0 28.39,-4.8 51.29,75.801 22.9,80.606 66.87,170.149 66.87,170.149 h 5.49 c 0,0 -19.23,-167.399 10.08,-220.524 29.31,-53.125 105.33,-18.211 105.33,-18.211 0,0 53.13,26.618 61.37,34.864 0,0 63.07,-53.735 152,-44.028 198.8,39.133 269.55,91.93 269.55,91.93 0,0 34.14,-86.555 139.92,-94.57 120.91,-9.161 186.85,66.867 186.85,66.867 0,0 -0.91,-49.457 41.22,-66.86 42.14,-17.402 70.53,81.075 70.53,81.075 l 70.53,195.105 h 6.41 c 0,0 3.67,-127.098 73.28,-147.25 69.61,-20.152 160.29,46.824 160.29,46.824 0,0 21.98,11.789 18.32,48.43" /><g
             transform="scale(3.66384)"
             id="g36"><text
               id="text40"
               style="font-variant:normal;font-weight:normal;font-size:40px;font-family:MyriadPro;-inkscape-font-specification:MyriadPro-Regular;writing-mode:lr-tb;fill:#e3392c;fill-opacity:1;fill-rule:nonzero;stroke:none"
               transform="matrix(1,0,0,-1,1180.93,31.6235)"><tspan
                 id="tspan38"
                 y="0"
                 x="0">®</tspan></text>
</g><path
             id="path42"
             style="fill:#100f0d;fill-opacity:1;fill-rule:nonzero;stroke:none"
             d="M 7312.58,1.83203 H 9719.72 V 1064.342 H 7312.58 Z" /><path
             id="path44"
             style="fill:none;stroke:#100f0d;stroke-width:3.66384006;stroke-linecap:butt;stroke-linejoin:miter;stroke-miterlimit:10;stroke-dasharray:none;stroke-opacity:1"
             d="M 7312.58,1.83203 H 9719.72 V 1064.342 H 7312.58 Z" /><path
             id="path46"
             style="fill:#e3392c;fill-opacity:1;fill-rule:evenodd;stroke:none"
             d="m 8968.01,401.547 c -2.6,25.933 -25.94,16.285 -25.94,16.285 0,0 -37.63,-29.148 -70.68,-25.906 -33.08,3.242 -22.71,77.179 -22.71,77.179 0,0 7.14,67.77 -12.31,73.45 -19.46,5.679 -43.46,-17.664 -43.46,-17.664 0,0 -29.82,-33.067 -44.07,-75.211 l -3.89,-1.297 c 0,0 4.55,73.914 -0.66,90.773 -3.88,8.43 -39.53,7.782 -45.39,-7.129 -5.83,-14.914 -34.33,-118.656 -36.31,-162.097 0,0 -55.73,-47.328 -104.38,-55.11 -48.62,-7.785 -60.31,22.692 -60.31,22.692 0,0 132.3,36.957 127.76,142.644 -4.54,105.684 -106.69,66.602 -118.23,57.91 -11.18,-8.398 -70.86,-44.402 -88.26,-144.093 -0.63,-3.399 -1.65,-18.207 -1.65,-18.207 0,0 -51.22,-34.364 -79.77,-43.442 0,0 79.77,134.215 -17.47,195.16 -44.11,26.586 -79.1,-29.172 -79.1,-29.172 0,0 131.6,146.532 102.44,270.372 -13.92,58.976 -43.38,65.304 -70.46,55.761 -41.07,-16.211 -56.64,-40.199 -56.64,-40.199 0,0 -53.16,-77.16 -65.47,-191.922 -12.35,-114.762 -30.49,-253.515 -30.49,-253.515 0,0 -25.28,-24.637 -48.61,-25.934 -23.34,-1.297 -12.97,69.375 -12.97,69.375 0,0 18.13,107.629 16.85,125.785 -1.28,18.153 -2.6,27.883 -24,34.363 -21.4,6.485 -44.74,-20.75 -44.74,-20.75 0,0 -61.59,-93.363 -66.79,-107.628 l -3.22,-5.836 -3.26,3.89 c 0,0 43.45,127.082 1.94,129.028 -41.47,1.945 -68.7,-45.383 -68.7,-45.383 0,0 -47.33,-79.106 -49.27,-88.184 l -3.27,3.891 c 0,0 19.46,92.07 15.57,114.762 -3.88,22.695 -25.28,18.156 -25.28,18.156 0,0 -27.26,3.242 -34.36,-14.262 -7.15,-17.508 -33.09,-133.566 -36.31,-170.523 0,0 -68.07,-48.629 -112.81,-49.278 -44.77,-0.652 -40.23,28.371 -40.23,28.371 0,0 164.07,56.153 119.33,167.024 -20.11,28.527 -43.45,37.504 -76.54,36.855 -33.04,-0.648 -74.08,-20.828 -100.68,-80.476 -12.67,-28.453 -17.29,-55.453 -19.89,-75.891 0,0 -28.73,-5.859 -44.3,7.109 -15.53,12.965 -23.56,0 -23.56,0 0,0 -26.71,-34.05 -0.14,-44.429 26.59,-10.371 68.11,-15.223 68.11,-15.223 h -0.04 c 3.81,-18.152 14.91,-48.992 47.26,-73.578 48.66,-36.957 141.98,3.398 141.98,3.398 l 38.25,21.473 c 0,0 1.32,-35.09 29.2,-40.226 27.88,-5.106 39.53,0.078 88.15,118.082 28.54,60.3 30.48,57.085 30.48,57.085 l 3.27,0.653 c 0,0 -22.06,-115.418 -13.64,-146.535 8.43,-31.121 45.4,-27.883 45.4,-27.883 0,0 20.08,-3.887 36.31,53.168 16.19,57.058 47.34,119.949 47.34,119.949 h 3.88 c 0,0 -13.63,-118.004 7.11,-155.609 20.77,-37.61 74.59,-12.657 74.59,-12.657 0,0 37.59,18.985 43.42,24.817 0,0 44.63,-37.992 107.61,-31.094 140.72,27.699 190.77,65.098 190.77,65.098 0,0 24.18,-61.258 99.07,-66.938 85.59,-6.484 132.27,47.356 132.27,47.356 0,0 -0.63,-35.012 29.2,-47.328 29.82,-12.325 49.9,56.898 49.9,56.898 l 49.94,137.613 h 4.54 c 0,0 2.6,-89.476 51.88,-103.742 49.28,-14.262 113.47,33.402 113.47,33.402 0,0 15.53,8.586 12.97,34.524 z M 7573.33,388.734 c 1.94,77.157 52.51,110.875 70.02,94.012 17.51,-16.855 11.03,-53.164 -22.02,-75.859 -33.08,-22.692 -48,-18.153 -48,-18.153 z m 658.1,298.903 c 0,0 46.05,119.949 57.05,61.593 11.02,-58.351 -96.58,-232.117 -96.58,-232.117 1.28,38.903 39.53,170.524 39.53,170.524 z m 55.11,-333.914 c -30.45,-79.75 -104.39,-47.336 -104.39,-47.336 0,0 -8.42,28.531 15.57,108.281 24,79.754 80.39,48.629 80.39,48.629 0,0 38.91,-29.824 8.43,-109.574 z m 204.25,35.011 c 0,0 -7.14,25.286 19.46,73.914 26.56,48.629 47.34,22.043 47.34,22.043 0,0 22.68,-24.632 -3.27,-61.593 -25.93,-36.957 -63.53,-34.364 -63.53,-34.364" /><path
             id="path48"
             style="fill:#fff9ef;fill-opacity:1;fill-rule:nonzero;stroke:none"
             d="m 9015.89,241.379 c -18.79,0 -35.28,3.445 -49.49,10.344 -14.18,6.894 -26.09,16.125 -35.69,27.687 -9.6,11.563 -16.82,24.953 -21.73,40.164 -4.91,15.215 -7.36,31.035 -7.36,47.469 0,11.758 2.05,25.863 6.12,42.293 4.06,16.43 8.5,30.777 13.3,43.051 4.8,12.277 10.7,23.984 17.77,35.144 7.03,11.149 15.17,20.946 24.44,29.36 9.3,8.418 19.63,15.113 31.07,20.082 11.43,4.976 23.96,7.457 37.62,7.457 12.28,0 23.67,-1.774 34.15,-5.317 10.48,-3.554 19.42,-8.484 26.86,-14.761 7.43,-6.297 13.3,-13.747 17.47,-22.364 4.22,-8.629 6.34,-17.91 6.34,-27.843 0,-6.899 -0.99,-13.692 -2.97,-20.387 -1.97,-6.692 -5.82,-14.555 -11.54,-23.574 -5.71,-9.032 -11.25,-15.176 -16.63,-18.414 -5.35,-3.247 -11.47,-4.868 -18.25,-4.868 -10.26,0 -16.89,2.532 -19.89,7.606 -4.91,7.91 -6.45,14.91 -4.66,20.996 0.63,3.238 2.42,10.742 5.47,22.512 0.4,1.621 0.51,5.273 0.29,10.957 0,4.867 -0.48,8.918 -1.51,12.168 -0.98,3.242 -3.22,4.871 -6.66,4.871 -8.29,0 -15.36,-1.981 -21.22,-5.93 -5.86,-3.965 -10.84,-9.129 -14.98,-15.527 -4.14,-6.383 -8.21,-15.41 -12.28,-27.071 -4.03,-11.668 -6.92,-21.457 -8.61,-29.367 -1.72,-7.91 -2.78,-15.469 -3.18,-22.672 -0.41,-7.195 -0.62,-13.234 -0.62,-18.097 0,-7.301 0.65,-14.914 1.97,-22.825 1.32,-7.91 3.96,-15.164 7.88,-21.757 3.92,-6.586 9.01,-12.063 15.28,-16.43 6.26,-4.359 14.36,-6.539 24.25,-6.539 9.75,0 20.48,2.992 32.24,8.973 11.77,5.988 23.6,13.546 35.47,22.671 11.87,9.129 23.16,19.168 33.93,30.125 10.73,10.95 19.96,21.297 27.69,31.032 l 21,-35.293 c -15.24,-21.711 -31.66,-41.075 -49.32,-58.117 -7.51,-7.301 -15.68,-14.407 -24.47,-21.297 -8.83,-6.899 -18.06,-13.036 -27.7,-18.414 -9.63,-5.368 -19.67,-9.735 -30.12,-13.075 -10.44,-3.355 -21.03,-5.023 -31.73,-5.023" /><path
             id="path50"
             style="fill:#fff9ef;fill-opacity:1;fill-rule:nonzero;stroke:none"
             d="m 9234.99,482.574 c 9.16,16.364 18.87,34.778 29.17,55.231 10.26,20.453 19.96,41.515 29.13,63.211 9.16,21.679 17.1,43.312 23.81,64.898 6.7,21.57 10.99,41.672 12.82,60.293 0,5.926 -0.14,10.992 -0.44,15.184 -0.29,4.191 -1.21,6.289 -2.71,6.289 -5.6,0 -11.61,-3.856 -18.02,-11.559 -6.45,-7.707 -12.9,-18.129 -19.35,-31.281 -6.41,-13.156 -14.1,-34.539 -23.04,-64.176 -8.95,-29.621 -13.41,-44.441 -13.41,-44.449 0,0 -2.75,-13.754 -8.21,-41.242 -5.46,-27.485 -8.69,-51.621 -9.75,-72.399 z m -0.29,-241.195 c -10.92,0 -21.07,4.738 -30.45,14.223 -9.41,9.492 -17.58,22.21 -24.58,38.191 -6.96,15.965 -12.42,34.492 -16.34,55.555 -3.96,21.058 -5.94,43.175 -5.94,66.336 0,19.906 2.93,46.476 8.8,79.711 5.86,33.234 8.75,49.851 8.75,49.851 0,0 4.44,16.586 13.3,49.789 8.87,33.195 17.74,59.824 26.67,79.875 8.91,20.043 18.58,38.781 29.02,56.203 10.48,17.422 21.44,32.606 32.9,45.551 11.47,12.938 23.45,23.117 35.95,30.508 12.49,7.398 25.2,11.101 38.14,11.101 9.38,0 17.14,-1.796 23.22,-5.378 6.13,-3.586 10.92,-8.317 14.44,-14.204 3.48,-5.879 5.94,-12.543 7.37,-19.984 1.43,-7.449 2.12,-15.035 2.12,-22.75 0,-19.18 -2.27,-38.711 -6.78,-58.598 -4.54,-19.886 -10.66,-39.879 -18.35,-59.968 -7.7,-20.094 -16.64,-40.235 -26.75,-60.426 -10.11,-20.195 -20.66,-40.238 -31.62,-60.125 -10.95,-19.883 -21.98,-39.477 -33.05,-58.742 -11.1,-19.278 -21.28,-38.121 -30.66,-56.528 -1.03,-2.05 -2.09,-4.711 -3.23,-7.98 -1.09,-3.278 -2.16,-6.797 -3.18,-10.586 -1.03,-3.793 -2.02,-7.828 -3.04,-12.125 -1.03,-4.297 -1.84,-8.488 -2.46,-12.574 v -4.297 c 0,-5.32 0.55,-10.485 1.69,-15.5 1.09,-5.004 2.48,-9.512 4.1,-13.496 1.65,-3.992 3.37,-7.164 5.2,-9.52 1.83,-2.344 3.56,-3.523 5.17,-3.523 3.95,0 8.5,0.816 13.55,2.453 5.1,1.64 10.52,3.836 16.23,6.598 5.68,2.757 11.58,5.925 17.59,9.511 6.01,3.582 11.84,7.211 17.44,10.895 13.08,8.586 60.75,43.5 75.11,54.75 l 17.59,-72.871 c -18.62,-12.348 -61.67,-39.59 -79.84,-49.231 -7.95,-4.054 -16.16,-8.051 -24.62,-12.004 -8.43,-3.957 -16.96,-7.48 -25.54,-10.562 -8.53,-3.094 -16.89,-5.555 -25.06,-7.379 -8.13,-1.836 -15.75,-2.75 -22.86,-2.75" /><path
             id="path52"
             style="fill:#fff9ef;fill-opacity:1;fill-rule:nonzero;stroke:none"
             d="m 9603.87,359.16 c -1.21,2.516 -2.82,4.727 -4.84,6.656 -2.01,1.922 -4.32,3.496 -6.85,4.704 -2.53,1.207 -5.06,2.015 -7.62,2.418 -2.53,0.406 -4.95,0.347 -7.18,-0.172 -2.27,-0.528 -3.96,-1.707 -5.57,-3.106 -3.22,-2.82 -6.45,-5.89 -9.71,-8.906 -5.42,-4.551 -7.48,-6.676 -14.03,-12.496 -8.72,-7.715 -17.66,-15.164 -26.78,-22.367 -9.13,-7.196 -18.18,-13.34 -27.08,-18.403 -8.94,-5.074 -17.04,-7.605 -24.37,-7.605 -6.26,0 -10.44,2.687 -12.45,8.055 -2.05,5.367 -3.04,12.621 -3.04,21.753 0,9.325 1.46,19.684 4.36,31.09 2.93,11.407 5.34,22.891 7.25,34.453 1.94,11.563 5.5,25.528 10.74,41.911 5.2,16.382 9.16,29.777 11.83,40.203 2.64,10.422 5.02,19.707 7.11,27.867 2.09,8.144 3.11,14.445 3.11,18.91 0,5.273 -1.5,9.484 -4.47,12.633 -3,3.14 -8.68,4.715 -17.03,4.715 -4.59,0 -9.71,-0.575 -15.39,-1.692 -5.68,-1.136 -11.18,-2.875 -16.45,-5.23 -5.28,-2.367 -10,-5.391 -14.22,-9.078 -4.58,-4.106 -7.36,-8.719 -8.35,-13.84 -1.8,-7.313 -6.56,-23.086 -14.25,-47.313 -8.32,-29.726 -13.86,-48.914 -16.6,-57.582 -1.69,-4.351 -5.42,-24.144 -11.29,-59.39 -2.85,-17.043 -4.25,-31.95 -4.25,-44.731 0,-9.125 0.96,-17.496 2.9,-25.097 1.9,-7.618 5.09,-14.055 9.56,-19.325 4.47,-5.281 10.3,-9.383 17.52,-12.32 7.18,-2.941 16.08,-4.414 26.63,-4.414 11.73,0 24.18,2.129 37.26,6.391 13.08,4.257 25.9,9.589 38.47,15.964 12.6,6.403 24.29,13.395 35.17,21.008 9.49,6.649 17.37,12.895 24.15,18.856 8.21,5.832 16.3,13.73 27.11,25.886 3.56,3.977 6.3,7.551 7.88,11.067 1.61,3.531 2.42,6.867 2.49,10.023 0.07,3.153 -0.51,5.989 -1.72,8.504" /><path
             id="path54"
             style="fill:#fff9ef;fill-opacity:1;fill-rule:nonzero;stroke:none"
             d="m 9487.5,578.895 c 10.34,0 19.24,1.582 26.64,4.757 7.4,3.172 13.52,7.325 18.39,12.438 4.88,5.125 8.43,10.953 10.67,17.512 2.23,6.546 3.33,13.308 3.33,20.269 0,7.574 -1.36,14.121 -4.1,19.66 -2.75,5.524 -6.45,9.981 -11.11,13.356 -4.69,3.375 -10.14,5.879 -16.44,7.531 -6.27,1.625 -12.98,2.449 -20.08,2.449 -11.36,0 -20.82,-1.793 -28.44,-5.379 -7.62,-3.582 -13.7,-7.988 -18.28,-13.199 -4.54,-5.223 -7.84,-10.805 -9.85,-16.742 -2.05,-5.942 -3.05,-11.262 -3.05,-15.973 0,-14.125 4.25,-25.441 12.75,-33.929 8.54,-8.5 21.73,-12.75 39.57,-12.75" /><g
             transform="scale(3.66384)"
             id="g56"><text
               id="text60"
               style="font-variant:normal;font-weight:normal;font-size:29.75650024px;font-family:MyriadPro;-inkscape-font-specification:MyriadPro-Regular;writing-mode:lr-tb;fill:#e3392c;fill-opacity:1;fill-rule:nonzero;stroke:none"
               transform="matrix(1,0,0,-1,2385.72,60.5453)"><tspan
                 id="tspan58"
                 y="0"
                 x="0">®</tspan></text>
</g><path
             id="path62"
             style="fill:#e3392c;fill-opacity:1;fill-rule:evenodd;stroke:none"
             d="m 6493.42,401.547 c -2.6,25.933 -25.94,16.289 -25.94,16.289 0,0 -37.59,-29.152 -70.68,-25.91 -33.05,3.242 -22.68,77.179 -22.68,77.179 0,0 7.11,67.77 -12.31,73.45 -19.45,5.679 -43.45,-17.664 -43.45,-17.664 0,0 -29.82,-33.067 -44.11,-75.211 l -3.89,-1.297 c 0,0 4.55,73.914 -0.62,90.773 -3.92,8.43 -39.57,7.782 -45.4,-7.129 -5.82,-14.914 -34.36,-118.656 -36.3,-162.097 0,0 -55.77,-47.328 -104.39,-55.11 -48.65,-7.781 -60.3,22.692 -60.3,22.692 0,0 132.26,36.957 127.72,142.644 -4.55,105.684 -106.66,66.602 -118.2,57.91 -11.17,-8.398 -70.89,-44.398 -88.3,-144.093 -0.58,-3.399 -1.61,-18.207 -1.61,-18.207 0,0 -51.25,-34.364 -79.76,-43.442 0,0 79.76,134.215 -17.51,195.16 -44.08,26.586 -79.1,-29.172 -79.1,-29.172 0,0 131.6,146.532 102.44,270.372 -13.89,58.972 -43.35,65.3 -70.42,55.757 -41.11,-16.207 -56.65,-40.199 -56.65,-40.199 0,0 -53.19,-77.156 -65.51,-191.918 -12.31,-114.762 -30.48,-253.515 -30.48,-253.515 0,0 -25.28,-24.637 -48.62,-25.934 -23.33,-1.297 -12.97,69.375 -12.97,69.375 0,0 18.17,107.629 16.86,125.785 -1.29,18.153 -2.57,27.883 -23.97,34.363 -21.39,6.485 -44.73,-20.75 -44.73,-20.75 0,0 -61.63,-93.363 -66.79,-107.628 l -3.26,-5.836 -3.23,3.89 c 0,0 43.45,127.082 1.94,129.028 -41.51,1.945 -68.73,-45.383 -68.73,-45.383 0,0 -47.34,-79.106 -49.28,-88.184 l -3.22,3.891 c 0,0 19.45,92.07 15.53,114.762 -3.88,22.695 -25.28,18.156 -25.28,18.156 0,0 -27.22,3.242 -34.36,-14.262 -7.11,-17.508 -33.05,-133.566 -36.31,-170.523 0,0 -68.08,-48.629 -112.81,-49.278 -44.74,-0.652 -40.19,28.371 -40.19,28.371 0,0 164.02,56.153 119.29,167.024 -20.11,28.527 -43.45,37.504 -76.5,36.855 -33.09,-0.648 -74.08,-20.828 -100.68,-80.476 -12.72,-28.453 -17.33,-55.45 -19.93,-75.887 0,0 -28.69,-5.863 -44.27,7.105 -15.57,12.965 -23.55,0 -23.55,0 0,0 -26.75,-34.05 -0.15,-44.429 26.6,-10.371 68.08,-15.223 68.08,-15.223 h -0.04 c 3.81,-18.152 14.91,-48.988 47.3,-73.578 48.62,-36.957 141.97,3.398 141.97,3.398 l 38.25,21.477 c 0,0 1.29,-35.094 29.17,-40.227 27.88,-5.109 39.56,0.079 88.19,118.082 28.53,60.297 30.48,57.082 30.48,57.082 l 3.22,0.653 c 0,0 -22.05,-115.414 -13.59,-146.535 8.42,-31.121 45.36,-27.879 45.36,-27.879 0,0 20.11,-3.891 36.31,53.164 16.23,57.058 47.33,119.949 47.33,119.949 h 3.89 c 0,0 -13.59,-118.004 7.14,-155.609 20.74,-37.606 74.56,-12.653 74.56,-12.653 0,0 37.59,18.981 43.45,24.817 0,0 44.63,-37.992 107.61,-31.098 140.73,27.699 190.78,65.098 190.78,65.098 0,0 24.14,-61.258 99.07,-66.938 85.59,-6.484 132.26,47.36 132.26,47.36 0,0 -0.66,-35.016 29.16,-47.332 29.83,-12.321 49.94,56.902 49.94,56.902 l 49.94,137.609 h 4.51 c 0,0 2.6,-89.476 51.88,-103.742 49.28,-14.262 113.47,33.406 113.47,33.406 0,0 15.57,8.586 12.97,34.52 z M 5098.78,388.734 c 1.94,77.157 52.5,110.875 70.01,94.012 17.52,-16.855 11.03,-53.164 -22.05,-75.859 -33.05,-22.692 -47.96,-18.153 -47.96,-18.153 z m 658.1,298.903 c 0,0 46.01,119.949 57.04,61.593 11.03,-58.351 -96.61,-232.117 -96.61,-232.117 1.31,38.903 39.57,170.524 39.57,170.524 z m 55.1,-333.914 c -30.48,-79.75 -104.38,-47.332 -104.38,-47.332 0,0 -8.43,28.527 15.53,108.277 24,79.754 80.42,48.629 80.42,48.629 0,0 38.91,-29.824 8.43,-109.574 z m 204.22,35.011 c 0,0 -7.11,25.286 19.46,73.914 26.6,48.629 47.34,22.043 47.34,22.043 0,0 22.67,-24.632 -3.23,-61.589 -25.94,-36.961 -63.57,-34.368 -63.57,-34.368" /><path
             id="path64"
             style="fill:#5c1d1a;fill-opacity:1;fill-rule:nonzero;stroke:none"
             d="m 6541.3,241.383 c -18.79,0 -35.28,3.441 -49.46,10.34 -14.22,6.894 -26.09,16.129 -35.68,27.691 -9.6,11.559 -16.86,24.949 -21.77,40.164 -4.91,15.211 -7.32,31.031 -7.32,47.465 0,11.758 2.01,25.863 6.11,42.293 4.07,16.43 8.5,30.777 13.3,43.051 4.81,12.277 10.7,23.984 17.73,35.144 7.04,11.149 15.17,20.946 24.48,29.36 9.27,8.418 19.64,15.113 31.03,20.082 11.44,4.976 23.96,7.457 37.63,7.457 12.31,0 23.67,-1.774 34.15,-5.317 10.48,-3.554 19.42,-8.484 26.89,-14.761 7.44,-6.297 13.26,-13.747 17.48,-22.364 4.17,-8.629 6.3,-17.91 6.3,-27.843 0,-6.899 -0.99,-13.692 -2.97,-20.387 -1.98,-6.692 -5.82,-14.555 -11.5,-23.574 -5.72,-9.028 -11.25,-15.172 -16.64,-18.414 -5.38,-3.247 -11.47,-4.868 -18.28,-4.868 -10.26,0 -16.89,2.532 -19.86,7.606 -4.94,7.91 -6.48,14.91 -4.65,20.996 0.59,3.238 2.42,10.746 5.46,22.516 0.4,1.621 0.47,5.269 0.29,10.953 0,4.867 -0.51,8.918 -1.54,12.168 -0.99,3.242 -3.22,4.871 -6.63,4.871 -8.28,0 -15.35,-1.981 -21.21,-5.93 -5.86,-3.965 -10.85,-9.129 -15.02,-15.527 -4.14,-6.383 -8.21,-15.41 -12.24,-27.071 -4.07,-11.668 -6.93,-21.457 -8.65,-29.367 -1.72,-7.91 -2.78,-15.469 -3.19,-22.672 -0.4,-7.195 -0.58,-13.23 -0.58,-18.097 0,-7.301 0.66,-14.91 1.98,-22.825 1.28,-7.91 3.92,-15.164 7.84,-21.757 3.95,-6.582 9.05,-12.063 15.31,-16.43 6.27,-4.359 14.33,-6.535 24.22,-6.535 9.74,0 20.52,2.992 32.28,8.969 11.76,5.988 23.56,13.546 35.43,22.671 11.87,9.129 23.19,19.168 33.93,30.125 10.76,10.954 19.96,21.297 27.69,31.036 l 21,-35.297 c -15.21,-21.707 -31.66,-41.075 -49.28,-58.114 -7.51,-7.304 -15.68,-14.41 -24.51,-21.3 -8.83,-6.899 -18.06,-13.032 -27.7,-18.411 -9.64,-5.371 -19.68,-9.738 -30.12,-13.078 -10.44,-3.355 -21.03,-5.019 -31.73,-5.019" /><path
             id="path66"
             style="fill:#5c1d1a;fill-opacity:1;fill-rule:nonzero;stroke:none"
             d="m 6760.4,482.574 c 9.16,16.364 18.87,34.778 29.17,55.231 10.29,20.453 20,41.515 29.16,63.211 9.16,21.679 17.07,43.312 23.81,64.894 6.71,21.574 10.96,41.676 12.79,60.293 0,5.93 -0.15,10.996 -0.4,15.188 -0.29,4.191 -1.21,6.289 -2.75,6.289 -5.57,0 -11.58,-3.856 -18.03,-11.563 -6.44,-7.703 -12.89,-18.129 -19.31,-31.281 -6.44,-13.152 -14.14,-34.535 -23.08,-64.172 -8.94,-29.621 -13.4,-44.441 -13.4,-44.449 0,0 -2.72,-13.754 -8.21,-41.242 -5.46,-27.485 -8.69,-51.621 -9.75,-72.399 z m -0.29,-241.191 c -10.92,0 -21.07,4.738 -30.45,14.222 -9.41,9.489 -17.59,22.207 -24.55,38.188 -6.96,15.969 -12.42,34.492 -16.38,55.555 -3.91,21.062 -5.89,43.175 -5.89,66.336 0,19.906 2.93,46.476 8.75,79.711 5.87,33.234 8.8,49.851 8.8,49.851 0,0 4.43,16.586 13.26,49.789 8.87,33.195 17.77,59.824 26.67,79.875 8.91,20.043 18.58,38.781 29.06,56.203 10.44,17.422 21.39,32.606 32.86,45.551 11.47,12.938 23.45,23.113 35.98,30.504 12.49,7.402 25.17,11.102 38.1,11.102 9.38,0 17.15,-1.797 23.27,-5.379 6.12,-3.582 10.92,-8.313 14.4,-14.203 3.52,-5.879 5.97,-12.543 7.4,-19.981 1.39,-7.449 2.13,-15.039 2.13,-22.754 0,-19.176 -2.28,-38.711 -6.82,-58.594 -4.54,-19.886 -10.66,-39.879 -18.36,-59.968 -7.69,-20.094 -16.59,-40.235 -26.7,-60.426 -10.16,-20.195 -20.71,-40.238 -31.66,-60.125 -10.96,-19.883 -21.98,-39.477 -33.05,-58.742 -11.06,-19.278 -21.29,-38.121 -30.66,-56.528 -1.03,-2.05 -2.09,-4.711 -3.19,-7.98 -1.14,-3.278 -2.2,-6.797 -3.22,-10.586 -1,-3.789 -2.02,-7.824 -3.05,-12.125 -1.02,-4.297 -1.83,-8.488 -2.45,-12.57 v -4.301 c 0,-5.32 0.59,-10.485 1.68,-15.5 1.14,-5.004 2.5,-9.512 4.14,-13.492 1.62,-3.996 3.34,-7.168 5.17,-9.524 1.83,-2.344 3.55,-3.523 5.2,-3.523 3.96,0 8.47,0.816 13.56,2.453 5.09,1.644 10.48,3.84 16.19,6.598 5.72,2.757 11.58,5.925 17.59,9.511 6.04,3.582 11.83,7.211 17.48,10.895 13.08,8.586 60.74,43.5 75.07,54.75 l 17.58,-72.867 c -18.57,-12.348 -61.66,-39.594 -79.83,-49.235 -7.92,-4.054 -16.12,-8.047 -24.58,-12.004 -8.47,-3.957 -16.97,-7.476 -25.54,-10.562 -8.58,-3.09 -16.93,-5.555 -25.06,-7.379 -8.17,-1.836 -15.8,-2.746 -22.9,-2.746" /><path
             id="path68"
             style="fill:#5c1d1a;fill-opacity:1;fill-rule:nonzero;stroke:none"
             d="m 7129.28,359.16 c -1.17,2.516 -2.79,4.731 -4.84,6.656 -2.01,1.922 -4.29,3.496 -6.82,4.704 -2.52,1.207 -5.09,2.015 -7.62,2.421 -2.56,0.403 -4.98,0.344 -7.21,-0.175 -2.24,-0.528 -3.96,-1.707 -5.57,-3.106 -3.19,-2.82 -6.45,-5.89 -9.68,-8.906 -5.45,-4.551 -7.47,-6.676 -14.06,-12.496 -8.73,-7.711 -17.66,-15.164 -26.79,-22.367 -9.12,-7.196 -18.13,-13.34 -27.07,-18.403 -8.94,-5.074 -17.04,-7.605 -24.33,-7.605 -6.3,0 -10.48,2.687 -12.49,8.055 -2.02,5.371 -3.05,12.621 -3.05,21.753 0,9.325 1.47,19.688 4.4,31.094 2.9,11.403 5.31,22.887 7.22,34.453 1.94,11.559 5.49,25.524 10.74,41.91 5.2,16.379 9.16,29.774 11.83,40.2 2.67,10.422 5.06,19.711 7.14,27.867 2.05,8.144 3.12,14.445 3.12,18.91 0,5.273 -1.5,9.484 -4.51,12.633 -2.97,3.14 -8.65,4.715 -17.04,4.715 -4.58,0 -9.7,-0.575 -15.38,-1.692 -5.68,-1.136 -11.14,-2.875 -16.45,-5.23 -5.28,-2.367 -10.01,-5.391 -14.18,-9.078 -4.59,-4.106 -7.41,-8.719 -8.39,-13.84 -1.8,-7.313 -6.56,-23.086 -14.26,-47.313 -8.28,-29.726 -13.81,-48.914 -16.6,-57.582 -1.68,-4.347 -5.42,-24.144 -11.24,-59.39 -2.86,-17.039 -4.29,-31.95 -4.29,-44.731 0,-9.125 0.95,-17.496 2.9,-25.097 1.94,-7.614 5.13,-14.055 9.6,-19.321 4.43,-5.281 10.29,-9.383 17.47,-12.32 7.22,-2.945 16.08,-4.418 26.64,-4.418 11.76,0 24.18,2.133 37.26,6.391 13.08,4.261 25.9,9.589 38.5,15.968 12.57,6.399 24.3,13.391 35.14,21.008 9.49,6.645 17.37,12.895 24.18,18.852 8.17,5.832 16.31,13.734 27.11,25.886 3.52,3.977 6.27,7.551 7.88,11.071 1.58,3.527 2.42,6.863 2.46,10.023 0.07,3.149 -0.52,5.988 -1.72,8.5" /><path
             id="path70"
             style="fill:#5c1d1a;fill-opacity:1;fill-rule:nonzero;stroke:none"
             d="m 7012.91,578.895 c 10.37,0 19.24,1.582 26.64,4.757 7.4,3.172 13.56,7.325 18.39,12.438 4.87,5.125 8.43,10.953 10.66,17.512 2.24,6.546 3.37,13.304 3.37,20.269 0,7.574 -1.39,14.121 -4.14,19.656 -2.71,5.528 -6.41,9.985 -11.1,13.36 -4.65,3.375 -10.15,5.879 -16.41,7.527 -6.3,1.629 -13.01,2.453 -20.08,2.453 -11.4,0 -20.85,-1.793 -28.47,-5.379 -7.58,-3.582 -13.66,-7.988 -18.24,-13.199 -4.55,-5.223 -7.88,-10.809 -9.9,-16.742 -2.01,-5.942 -3.04,-11.262 -3.04,-15.973 0,-14.125 4.25,-25.441 12.79,-33.929 8.5,-8.5 21.69,-12.75 39.53,-12.75" /><g
             transform="scale(3.66384)"
             id="g72"><text
               id="text76"
               style="font-variant:normal;font-weight:normal;font-size:29.75650024px;font-family:MyriadPro;-inkscape-font-specification:MyriadPro-Regular;writing-mode:lr-tb;fill:#e3392c;fill-opacity:1;fill-rule:nonzero;stroke:none"
               transform="matrix(1,0,0,-1,1710.31,60.5464)"><tspan
                 id="tspan74"
                 y="0"
                 x="0">®</tspan></text>
</g><path
             id="path78"
             style="fill:#100f0d;fill-opacity:1;fill-rule:nonzero;stroke:none"
             d="m 12258.8,1.83203 h 2407.14 V 1064.342 H 12258.8 Z" /><path
             id="path80"
             style="fill:none;stroke:#100f0d;stroke-width:3.66384006;stroke-linecap:butt;stroke-linejoin:miter;stroke-miterlimit:10;stroke-dasharray:none;stroke-opacity:1"
             d="m 12258.8,1.83203 h 2407.14 V 1064.342 H 12258.8 Z" /><g
             transform="scale(3.66384)"
             id="g82"><text
               id="text86"
               style="font-variant:normal;font-weight:normal;font-size:24.10400009px;font-family:MyriadPro;-inkscape-font-specification:MyriadPro-Regular;writing-mode:lr-tb;fill:#e3392c;fill-opacity:1;fill-rule:nonzero;stroke:none"
               transform="matrix(1,0,0,-1,2992.82,82.0168)"><tspan
                 id="tspan84"
                 y="0"
                 x="0">®</tspan></text>
</g><path
             id="path88"
             style="fill:#e3392c;fill-opacity:1;fill-rule:evenodd;stroke:none"
             d="m 11150,445.289 c -2,21.023 -20.9,13.199 -20.9,13.199 0,0 -30.5,-23.629 -57.4,-21 -26.8,2.625 -18.3,62.567 -18.3,62.567 0,0 5.7,54.933 -10,59.539 -15.8,4.601 -35.3,-14.321 -35.3,-14.321 0,0 -24.1,-26.804 -35.7,-60.964 l -3.1,-1.051 c 0,0 3.6,59.914 -0.6,73.578 -3.1,6.836 -32,6.309 -36.8,-5.781 -4.7,-12.086 -27.8,-96.18 -29.4,-131.395 0,0 -45.2,-38.367 -84.6,-44.672 -39.4,-6.308 -48.9,18.395 -48.9,18.395 0,0 107.2,29.957 103.5,115.625 -3.6,85.668 -86.4,53.988 -95.8,46.945 -9,-6.808 -57.4,-35.992 -71.5,-116.805 -0.5,-2.753 -1.3,-14.757 -1.3,-14.757 0,0 -41.6,-27.856 -64.7,-35.215 0,0 64.7,108.793 -14.2,158.203 -35.7,21.547 -64.1,-23.652 -64.1,-23.652 0,0 106.7,118.777 83,219.164 -11.2,47.808 -35.1,52.937 -57.1,45.203 -33.3,-13.141 -45.9,-32.586 -45.9,-32.586 0,0 -43.1,-62.543 -53.1,-155.574 -10,-93.028 -24.7,-205.5 -24.7,-205.5 0,0 -20.5,-19.973 -39.4,-21.024 -18.9,-1.051 -10.5,56.238 -10.5,56.238 0,0 14.7,87.247 13.7,101.961 -1.1,14.715 -2.1,22.602 -19.5,27.856 -17.3,5.258 -36.3,-16.817 -36.3,-16.817 0,0 -49.9,-75.683 -54.1,-87.25 l -2.6,-4.726 -2.6,3.152 c 0,0 35.2,103.012 1.5,104.59 -33.6,1.578 -55.7,-36.789 -55.7,-36.789 0,0 -38.4,-64.121 -39.9,-71.48 l -2.6,3.152 c 0,0 15.7,74.633 12.6,93.027 -3.2,18.399 -20.5,14.719 -20.5,14.719 0,0 -22.1,2.629 -27.9,-11.563 -5.8,-14.195 -26.8,-108.269 -29.4,-138.23 0,0 -55.2,-39.418 -91.5,-39.941 -36.2,-0.528 -32.6,22.996 -32.6,22.996 0,0 133,45.515 96.8,135.39 -16.3,23.125 -35.3,30.399 -62.1,29.875 -26.8,-0.527 -60,-16.882 -81.57,-65.234 -10.33,-23.063 -14.06,-44.949 -16.15,-61.516 0,0 -23.27,-4.75 -35.91,5.762 -12.6,10.512 -19.09,0 -19.09,0 0,0 -21.65,-27.602 -0.11,-36.016 21.54,-8.406 55.18,-12.339 55.18,-12.339 v 0 c 3.08,-14.715 12.09,-39.711 38.35,-59.641 39.4,-29.957 115.1,2.754 115.1,2.754 l 30.9,17.406 c 0,0 1.1,-28.441 23.7,-32.609 22.6,-4.137 32.1,0.066 71.5,95.722 23.1,48.879 24.7,46.27 24.7,46.27 l 2.6,0.523 c 0,0 -17.8,-93.55 -11,-118.777 6.8,-25.227 36.8,-22.602 36.8,-22.602 0,0 16.3,-3.148 29.4,43.098 13.1,46.254 38.4,97.234 38.4,97.234 h 3.1 c 0,0 -11,-95.656 5.8,-126.14 16.8,-30.485 60.4,-10.258 60.4,-10.258 0,0 30.5,15.387 35.3,20.121 0,0 36.1,-30.805 87.2,-25.207 114.1,22.449 154.6,52.766 154.6,52.766 0,0 19.6,-49.657 80.3,-54.262 69.4,-5.254 107.2,38.391 107.2,38.391 0,0 -0.5,-28.383 23.7,-38.368 24.2,-9.988 40.5,46.122 40.5,46.122 l 40.4,111.55 h 3.7 c 0,0 2.1,-72.531 42.1,-84.093 39.9,-11.563 92,27.082 92,27.082 0,0 12.6,6.957 10.4,27.98 z m -1130.5,-10.387 c 1.6,62.543 42.6,89.871 56.8,76.211 14.2,-13.668 8.9,-43.097 -17.9,-61.496 -26.8,-18.394 -38.9,-14.715 -38.9,-14.715 z m 533.5,242.293 c 0,0 37.3,97.231 46.3,49.93 8.9,-47.305 -78.4,-188.156 -78.4,-188.156 1.1,31.535 32.1,138.226 32.1,138.226 z m 44.7,-270.675 c -24.7,-64.645 -84.7,-38.368 -84.7,-38.368 0,0 -6.8,23.129 12.7,87.774 19.4,64.648 65.1,39.418 65.1,39.418 0,0 31.6,-24.176 6.9,-88.824 z m 165.6,28.382 c 0,0 -5.8,20.496 15.7,59.918 21.6,39.418 38.4,17.868 38.4,17.868 0,0 18.4,-19.973 -2.7,-49.93 -21,-29.957 -51.4,-27.856 -51.4,-27.856" /><g
             transform="scale(3.66384)"
             id="g90"><text
               id="text94"
               style="font-variant:normal;font-weight:normal;font-size:24.10400009px;font-family:MyriadPro;-inkscape-font-specification:MyriadPro-Regular;writing-mode:lr-tb;fill:#e3392c;fill-opacity:1;fill-rule:nonzero;stroke:none"
               transform="matrix(1,0,0,-1,3668.23,82.0168)"><tspan
                 id="tspan92"
                 y="0"
                 x="0">®</tspan></text>
</g><path
             id="path96"
             style="fill:#e3392c;fill-opacity:1;fill-rule:evenodd;stroke:none"
             d="m 13624.6,445.289 c -2.1,21.023 -21,13.203 -21,13.203 0,0 -30.5,-23.633 -57.3,-21.004 -26.8,2.629 -18.4,62.567 -18.4,62.567 0,0 5.8,54.933 -10,59.539 -15.7,4.601 -35.2,-14.321 -35.2,-14.321 0,0 -24.1,-26.804 -35.7,-60.964 l -3.2,-1.051 c 0,0 3.7,59.914 -0.5,73.578 -3.1,6.836 -32,6.309 -36.8,-5.781 -4.7,-12.086 -27.8,-96.18 -29.4,-131.395 0,0 -45.2,-38.363 -84.6,-44.672 -39.5,-6.308 -48.9,18.395 -48.9,18.395 0,0 107.2,29.957 103.5,115.625 -3.7,85.668 -86.4,53.988 -95.8,46.945 -9.1,-6.808 -57.5,-35.988 -71.6,-116.801 -0.4,-2.757 -1.3,-14.757 -1.3,-14.757 0,0 -41.5,-27.86 -64.6,-35.219 0,0 64.6,108.797 -14.2,158.203 -35.8,21.547 -64.1,-23.652 -64.1,-23.652 0,0 106.6,118.777 83,219.164 -11.3,47.808 -35.2,52.937 -57.1,45.203 -33.3,-13.141 -45.9,-32.586 -45.9,-32.586 0,0 -43.1,-62.543 -53.1,-155.574 -10,-93.028 -24.7,-205.5 -24.7,-205.5 0,0 -20.5,-19.973 -39.4,-21.024 -18.9,-1.051 -10.5,56.238 -10.5,56.238 0,0 14.7,87.247 13.6,101.961 -1,14.715 -2.1,22.602 -19.4,27.856 -17.4,5.258 -36.3,-16.817 -36.3,-16.817 0,0 -49.9,-75.683 -54.1,-87.25 l -2.7,-4.726 -2.6,3.152 c 0,0 35.3,103.012 1.6,104.59 -33.6,1.578 -55.7,-36.789 -55.7,-36.789 0,0 -38.4,-64.121 -39.9,-71.48 l -2.7,3.152 c 0,0 15.8,74.633 12.6,93.027 -3.1,18.399 -20.5,14.719 -20.5,14.719 0,0 -22,2.629 -27.8,-11.563 -5.8,-14.191 -26.8,-108.269 -29.5,-138.23 0,0 -55.1,-39.418 -91.4,-39.941 -36.2,-0.524 -32.6,22.996 -32.6,22.996 0,0 133,45.515 96.7,135.39 -16.3,23.125 -35.2,30.399 -62,29.875 -26.8,-0.523 -60.1,-16.882 -81.6,-65.234 -10.3,-23.063 -14,-44.949 -16.1,-61.516 0,0 -23.3,-4.75 -35.9,5.762 -12.6,10.512 -19.2,0 -19.2,0 0,0 -21.6,-27.602 0,-36.016 21.5,-8.406 55.1,-12.339 55.1,-12.339 v 0 c 3.1,-14.711 12.1,-39.711 38.3,-59.641 39.5,-29.957 115.1,2.754 115.1,2.754 l 31,17.406 c 0,0 1.1,-28.441 23.7,-32.605 22.6,-4.141 32,0.062 71.5,95.718 23.1,48.879 24.6,46.27 24.6,46.27 l 2.7,0.527 c 0,0 -17.9,-93.554 -11,-118.781 6.8,-25.227 36.7,-22.602 36.7,-22.602 0,0 16.3,-3.148 29.5,43.098 13.1,46.254 38.3,97.234 38.3,97.234 h 3.2 c 0,0 -11.1,-95.656 5.8,-126.136 16.8,-30.489 60.4,-10.262 60.4,-10.262 0,0 30.5,15.391 35.2,20.121 0,0 36.2,-30.801 87.3,-25.207 114,22.449 154.6,52.766 154.6,52.766 0,0 19.6,-49.657 80.3,-54.262 69.4,-5.254 107.2,38.391 107.2,38.391 0,0 -0.5,-28.383 23.7,-38.368 24.1,-9.984 40.4,46.122 40.4,46.122 l 40.5,111.55 h 3.7 c 0,0 2.1,-72.531 42.1,-84.093 39.9,-11.563 91.9,27.082 91.9,27.082 0,0 12.6,6.957 10.5,27.98 z m -1130.5,-10.383 c 1.6,62.539 42.6,89.871 56.8,76.207 14.2,-13.668 8.9,-43.097 -17.9,-61.496 -26.8,-18.394 -38.9,-14.711 -38.9,-14.711 z m 533.5,242.289 c 0,0 37.3,97.231 46.2,49.93 9,-47.305 -78.3,-188.156 -78.3,-188.156 1.1,31.535 32.1,138.226 32.1,138.226 z m 44.6,-270.675 c -24.7,-64.645 -84.6,-38.368 -84.6,-38.368 0,0 -6.8,23.129 12.6,87.778 19.5,64.644 65.2,39.414 65.2,39.414 0,0 31.6,-24.176 6.8,-88.824 z m 165.6,28.386 c 0,0 -5.8,20.492 15.8,59.914 21.5,39.418 38.4,17.868 38.4,17.868 0,0 18.4,-19.973 -2.7,-49.93 -21,-29.957 -51.5,-27.852 -51.5,-27.852" /><path
             id="path98"
             style="fill:#5c1d1a;fill-opacity:1;fill-rule:nonzero;stroke:none"
             d="m 11336.9,682.336 c 1.1,11.512 1.6,20.644 1.6,27.391 0,8.878 -0.8,15.05 -2.4,18.503 -1.6,3.454 -3.9,5.184 -6.9,5.184 -5.4,0 -10.2,-3.328 -14.6,-9.988 -4.3,-6.66 -7.8,-15.246 -10.5,-25.758 -2.6,-10.516 -5.5,-21.941 -8.6,-34.285 -3,-12.348 -5.3,-24.438 -6.8,-36.266 -1.4,-11.836 -2.5,-22.5 -3.4,-32 -0.9,-9.488 -1.5,-16.238 -1.8,-20.242 -0.8,-8.172 -1.3,-16.043 -1.8,-23.621 -0.4,-7.586 -0.7,-14.5 -0.9,-20.75 -0.2,-6.254 -0.3,-11.707 -0.3,-16.371 0,-4.668 0,-8.254 0,-10.746 v -2.508 c 9.2,21.914 17.6,43.726 25.3,65.469 3.2,9.265 6.4,18.933 9.5,28.984 3.1,10.066 6.2,20.051 9.3,29.949 3.1,9.899 5.7,19.699 7.9,29.41 2.1,9.707 3.6,18.922 4.4,27.645 z m -116.3,-168.274 c -10.9,-5.296 -20.5,-12.316 -29,-21.015 -8.5,-8.703 -15.5,-20.172 -21.2,-34.442 -5.7,-14.253 -10,-26.527 -13,-36.808 -2.9,-10.27 -4.4,-19.555 -4.4,-27.852 0,-2.574 0.4,-5.14 1.1,-7.715 0.7,-2.574 2.1,-4.89 4.1,-6.953 2,-2.05 4.7,-3.73 8.4,-5.011 3.6,-1.293 8.2,-1.934 14,-1.934 3,0 5.9,0.648 8.8,1.973 2.8,1.3 5.6,3.019 8.2,5.129 2.7,2.109 5.2,4.527 7.6,7.222 2.4,2.692 4.6,5.508 6.5,8.426 4.6,6.707 8.8,14.285 12.6,22.738 -0.5,2.321 -0.9,6.008 -1.2,11.071 -0.4,5.05 -0.6,12.765 -0.8,23.125 -0.2,10.359 -0.3,18.863 -0.5,25.492 -0.2,6.633 -0.3,12.676 -0.3,18.156 -0.2,5.473 -0.3,9.941 -0.4,13.426 -0.2,3.48 -0.4,5.14 -0.5,4.972 z m 170.9,-145.66 c -11.6,-9.597 -23.2,-18.16 -34.5,-25.668 -4.8,-3.136 -9.8,-6.242 -15,-9.304 -5.3,-3.047 -10.5,-5.762 -15.6,-8.118 -5.1,-2.359 -10,-4.273 -14.9,-5.761 -4.7,-1.481 -9.2,-2.223 -13.1,-2.223 -2.4,0 -5.9,0.524 -10.5,1.57 -4.6,1.059 -9.7,3.188 -15.2,6.422 -5.5,3.227 -10.9,7.903 -16.4,14.008 -5.5,6.121 -10.2,14.238 -14.3,24.36 -6.1,-6.286 -12.5,-12.262 -19.4,-17.934 -6.8,-5.672 -13.9,-10.609 -21.3,-14.789 -7.3,-4.195 -14.7,-7.559 -22.2,-10.082 -7.5,-2.535 -15.1,-3.801 -22.6,-3.801 -10.7,0 -20,2.223 -27.8,6.668 -7.8,4.453 -14.3,10.363 -19.5,17.75 -5.2,7.383 -9,15.758 -11.6,25.129 -2.5,9.363 -3.8,19.059 -3.8,29.066 0,10.672 1.4,21.477 4.1,32.418 2.7,10.922 6.6,21.524 11.8,31.785 5.2,10.258 10.9,20.985 17.3,32.172 6.3,11.18 14.7,21.36 25.1,30.543 10.5,9.18 21.2,16.102 32.2,20.778 11,4.668 22.8,7.589 35.3,8.761 0.5,21.36 2.8,40.184 6.8,56.461 4,16.274 8.4,33.785 13,52.539 4.7,18.75 10.7,36.016 18.1,51.801 7.3,15.785 15.4,29.43 24.1,40.938 8.8,11.507 18.1,20.511 28.1,27.004 9.9,6.488 20.2,9.742 30.8,9.742 7.6,0 14.2,-2.02 19.7,-6.055 5.4,-4.035 9.8,-9.387 13.2,-16.062 3.3,-6.672 5.7,-14.411 7.2,-23.223 1.5,-8.813 2.3,-17.914 2.3,-27.301 0,-5.863 -0.1,-11.891 -0.2,-18.082 -0.5,-23.605 -4.1,-45.578 -10.9,-65.918 -6.8,-20.332 -13.6,-40.437 -20.2,-60.305 -6.7,-19.875 -14.7,-39.535 -24.1,-58.98 -14.4,-29.762 -23.5,-49.969 -27.5,-60.606 -0.8,-2.324 -1.6,-5.156 -2.5,-8.484 -0.9,-3.324 -1.7,-6.933 -2.4,-10.84 -0.8,-3.906 -1.5,-7.902 -2,-11.976 -0.5,-4.075 -0.8,-8.024 -0.8,-11.84 0,-4.824 0.3,-9.403 0.9,-13.723 0.5,-4.32 1.5,-8.191 2.7,-11.594 1.3,-3.41 3,-6.113 5.2,-8.109 2.2,-1.992 4.8,-2.988 8.1,-2.988 3.1,0 6.5,0.621 10.2,1.863 3.7,1.242 7.6,2.941 11.7,5.102 4.1,2.148 8.3,4.597 12.5,7.332 4.2,2.738 8.2,5.511 12.2,8.336 9,6.628 18.5,14.175 28.3,22.628 l 7.4,-51.41" /><path
             id="path100"
             style="fill:#5c1d1a;fill-opacity:1;fill-rule:nonzero;stroke:none"
             d="m 11425.1,397.527 c 0,-4.242 0.2,-8.355 0.8,-12.339 0.6,-3.989 1.6,-7.547 3.1,-10.684 1.5,-3.141 3.5,-5.684 5.9,-7.641 2.5,-1.941 5.6,-2.918 9.4,-2.918 6.1,0 11.6,2.645 16.5,7.942 5,5.297 9.3,11.668 12.9,19.117 3.6,7.449 6.6,15.156 8.8,23.098 2.2,7.941 3.6,14.57 4.3,19.867 l 18.4,80.179 c -6.8,0 -13.3,-1.675 -19.7,-5.011 -6.4,-3.344 -12.5,-7.864 -18.2,-13.575 -5.6,-5.703 -10.9,-12.222 -15.6,-19.554 -4.8,-7.336 -9.5,-16.387 -14.1,-27.141 -4.6,-10.762 -7.8,-20.215 -9.7,-28.359 -1.9,-8.149 -2.8,-15.82 -2.8,-22.981 z m 211.5,-19.328 c -3.7,-5.316 -8.8,-11.551 -15.1,-18.703 -6.4,-7.152 -13.5,-13.969 -21.4,-20.453 -7.9,-6.481 -16.3,-11.977 -25.4,-16.465 -9,-4.488 -18.1,-6.73 -27.1,-6.73 -10.9,0 -20,3.457 -27.3,10.379 -7.3,6.918 -13.6,16.961 -18.9,30.152 -4,-4.559 -8.9,-9.199 -14.7,-13.914 -5.8,-4.727 -12.1,-8.992 -19,-12.82 -6.9,-3.821 -14.1,-6.961 -21.5,-9.395 -7.5,-2.445 -15,-3.66 -22.4,-3.66 -7.9,0 -15.6,1.617 -23,4.851 -7.6,3.239 -14.1,7.875 -19.9,13.93 -5.8,6.063 -10.4,13.441 -13.8,22.149 -3.5,8.714 -5.2,18.539 -5.2,29.492 0,12.281 1.7,24.898 5.2,37.843 3.5,12.946 8.9,26.942 16.1,42.028 7.3,15.078 15.1,28.097 23.5,39.078 8.4,10.969 17.5,20.562 27.4,28.75 9.9,8.195 20.4,14.707 31.4,19.543 11,4.832 22.2,7.25 33.6,7.25 3.8,0 6.8,-0.75 8.9,-2.238 2.2,-1.5 4,-3.207 5.4,-5.11 1.4,-1.914 2.7,-3.789 4.1,-5.613 1.3,-1.824 2.9,-3.16 4.9,-3.988 2,-0.828 4,-1.367 6.1,-1.617 2.1,-0.247 4.2,-0.376 6.3,-0.376 1.9,0 3.7,0.04 5.6,0.129 1.9,0.082 3.8,0.118 5.6,0.118 2.5,0 4.8,-0.247 7,-0.743 2.1,-0.5 4,-1.574 5.6,-3.246 1.7,-1.664 3,-3.98 3.9,-6.968 0.9,-2.993 1.3,-7.067 1.3,-12.219 0,-7.86 -0.8,-16.582 -2.5,-26.16 -1.6,-9.582 -3.5,-19.399 -5.6,-29.453 -2.1,-10.051 -4.5,-21.504 -7.3,-34.379 -2.7,-12.864 -4,-23.707 -4,-32.528 0,-7.539 0.7,-13.429 2.1,-17.668 1.4,-4.254 4.4,-6.375 9,-6.375 3.4,0 7.1,0.856 10.8,2.567 3.8,1.715 7.6,3.953 11.5,6.718 3.9,2.774 7.7,5.911 11.6,9.418 3.9,3.504 7.5,7.133 11,10.887 8,8.797 16.2,18.742 24.4,29.824 l 11.8,-54.285" /><path
             id="path102"
             style="fill:#5c1d1a;fill-opacity:1;fill-rule:nonzero;stroke:none"
             d="m 11766.9,369.617 c -5.9,-5.426 -13.3,-11.219 -22.1,-17.394 -8.8,-6.157 -18.3,-11.836 -28.5,-17.008 -10.2,-5.188 -20.6,-9.5 -31.2,-12.949 -10.6,-3.457 -20.7,-5.184 -30.2,-5.184 -8.6,0 -15.7,1.195 -21.6,3.574 -5.8,2.383 -10.5,5.711 -14.2,9.992 -3.6,4.27 -6.2,9.504 -7.7,15.657 -1.6,6.175 -2.4,12.953 -2.4,20.355 0,10.356 1.2,22.442 3.5,36.254 4.7,28.574 7.8,44.613 9.1,48.145 2.3,7.023 31.2,159.656 37.9,183.75 6.2,19.64 10.1,32.418 11.5,38.343 0.8,4.157 3.1,7.895 6.8,11.231 3.4,2.988 7.2,5.445 11.5,7.347 4.3,1.915 8.7,3.325 13.4,4.247 4.5,0.914 8.7,1.367 12.5,1.367 6.7,0 11.3,-1.27 13.8,-3.828 2.4,-2.547 3.6,-5.957 3.6,-10.227 0,-3.621 -0.8,-8.734 -2.6,-15.336 -1.7,-6.609 -3.6,-14.133 -5.7,-22.578 -2.2,-8.457 -5.4,-19.32 -9.6,-32.598 -4.3,-13.277 -31.6,-161.679 -33.1,-171.043 -1.5,-9.371 -3.5,-18.687 -5.9,-27.929 -2.4,-9.243 -3.5,-17.649 -3.5,-25.207 0,-7.399 0.8,-13.266 2.4,-17.625 1.7,-4.356 5.1,-6.535 10.1,-6.535 6,0 12.5,2.05 19.8,6.167 7.2,4.102 14.5,9.086 21.9,14.926 7.4,5.828 14.7,11.867 21.7,18.125 7.1,6.242 13.4,11.59 18.8,16.028 v -50.067" /><path
             id="path104"
             style="fill:#5c1d1a;fill-opacity:1;fill-rule:nonzero;stroke:none"
             d="m 11810.9,397.527 c 0,-4.242 0.2,-8.355 0.8,-12.339 0.6,-3.989 1.6,-7.547 3.1,-10.684 1.5,-3.141 3.5,-5.684 5.9,-7.641 2.5,-1.941 5.7,-2.918 9.4,-2.918 6.1,0 11.6,2.645 16.6,7.942 4.9,5.297 9.2,11.668 12.8,19.117 3.6,7.449 6.6,15.156 8.8,23.098 2.2,7.941 3.7,14.57 4.3,19.867 l 18.4,80.179 c -6.7,0 -13.3,-1.675 -19.7,-5.011 -6.4,-3.344 -12.5,-7.864 -18.1,-13.575 -5.7,-5.703 -11,-12.222 -15.7,-19.554 -4.8,-7.336 -9.5,-16.387 -14,-27.141 -4.7,-10.762 -7.9,-20.215 -9.8,-28.359 -1.9,-8.149 -2.8,-15.82 -2.8,-22.981 z m 211.6,-19.328 c -3.8,-5.316 -8.9,-11.551 -15.2,-18.703 -6.3,-7.152 -13.4,-13.969 -21.4,-20.453 -7.8,-6.481 -16.3,-11.977 -25.3,-16.465 -9.1,-4.488 -18.1,-6.73 -27.2,-6.73 -10.9,0 -20,3.457 -27.3,10.379 -7.3,6.918 -13.6,16.961 -18.9,30.152 -4,-4.559 -8.9,-9.199 -14.7,-13.914 -5.8,-4.727 -12.1,-8.992 -19,-12.82 -6.9,-3.821 -14,-6.961 -21.5,-9.395 -7.4,-2.445 -14.9,-3.66 -22.4,-3.66 -7.9,0 -15.6,1.617 -23,4.851 -7.5,3.239 -14.1,7.875 -19.9,13.93 -5.7,6.063 -10.3,13.441 -13.8,22.149 -3.5,8.714 -5.2,18.539 -5.2,29.492 0,12.281 1.7,24.898 5.2,37.843 3.5,12.946 8.9,26.942 16.1,42.028 7.3,15.078 15.1,28.097 23.5,39.078 8.4,10.969 17.5,20.562 27.4,28.75 9.9,8.195 20.4,14.707 31.4,19.543 11,4.832 22.2,7.25 33.6,7.25 3.8,0 6.8,-0.75 9,-2.238 2.1,-1.5 3.9,-3.207 5.3,-5.11 1.4,-1.914 2.8,-3.789 4.1,-5.613 1.3,-1.824 3,-3.16 4.9,-3.988 2,-0.828 4.1,-1.367 6.1,-1.617 2.1,-0.247 4.2,-0.376 6.4,-0.376 1.8,0 3.6,0.04 5.5,0.129 1.9,0.082 3.8,0.118 5.6,0.118 2.5,0 4.8,-0.247 7,-0.743 2.1,-0.5 4,-1.574 5.7,-3.246 1.6,-1.664 2.9,-3.98 3.8,-6.968 0.9,-2.993 1.3,-7.067 1.3,-12.219 0,-7.86 -0.8,-16.582 -2.4,-26.16 -1.7,-9.582 -3.5,-19.399 -5.7,-29.453 -2.1,-10.051 -4.5,-21.504 -7.2,-34.379 -2.7,-12.864 -4.1,-23.707 -4.1,-32.528 0,-7.539 0.7,-13.429 2.1,-17.668 1.4,-4.254 4.4,-6.375 9,-6.375 3.5,0 7.1,0.856 10.9,2.567 3.7,1.715 7.6,3.953 11.4,6.718 3.9,2.774 7.8,5.911 11.6,9.418 3.9,3.504 7.6,7.133 11,10.887 8.1,8.797 16.2,18.742 24.4,29.824 l 11.9,-54.285" /><path
             id="path106"
             style="fill:#5c1d1a;fill-opacity:1;fill-rule:nonzero;stroke:none"
             d="m 11732.1,582.199 c 1.3,0.61 3.5,0.824 6.6,0.653 3.1,-0.184 6.6,-0.235 10.6,-0.168 4.1,0.07 8.4,0.152 13.1,0.257 4.7,0.098 9.2,0.176 13.6,0.239 4.4,0.05 8.5,0.09 12.3,0.121 3.8,0.023 7,0.011 9.5,-0.024 2.9,-0.035 5.1,-1.765 6.6,-5.187 1.5,-3.422 2.4,-7.797 2.6,-13.117 0.3,-6.161 -0.9,-11.258 -3.6,-15.274 -2.7,-4.027 -5.8,-6.117 -9.4,-6.293 l -84.2,-4.23 -73.1,4.269 c -4.5,0.512 -7.9,1.032 -10.4,1.555 -2.4,0.516 -5.1,1.031 -7.8,1.535 -2.8,0.508 -6.3,1.024 -10.5,1.547 -4.2,0.523 -10.3,1.137 -18.3,1.836 -3.6,0.375 -6.4,1.297 -8.3,2.762 -2,1.461 -3.5,3.226 -4.5,5.297 -1,2.062 -1.6,4.238 -1.9,6.531 -0.2,2.293 -0.4,4.258 -0.5,5.91 -0.1,2.602 1.2,4.66 4,6.172 2.8,1.515 6.4,2.722 10.8,3.633 4.5,0.91 9.4,1.539 14.8,1.898 5.3,0.348 10.4,0.559 15.4,0.645 4.9,0.082 9.3,0.179 13.2,0.296 3.9,0.106 6.6,0.364 8,0.77 l 91.4,-1.633" /><path
             id="path108"
             style="fill:#ffffff;fill-opacity:1;fill-rule:nonzero;stroke:none"
             d="m 13811.5,680.273 c 1.1,11.516 1.6,20.645 1.6,27.391 0,8.879 -0.8,15.051 -2.5,18.504 -1.5,3.453 -3.8,5.184 -6.8,5.184 -5.4,0 -10.2,-3.329 -14.6,-9.989 -4.3,-6.66 -7.8,-15.246 -10.5,-25.758 -2.6,-10.511 -5.5,-21.941 -8.6,-34.285 -3.1,-12.343 -5.4,-24.437 -6.8,-36.265 -1.4,-11.836 -2.6,-22.5 -3.4,-32 -0.9,-9.489 -1.5,-16.239 -1.9,-20.243 -0.7,-8.171 -1.2,-16.042 -1.7,-23.621 -0.5,-7.586 -0.8,-14.503 -0.9,-20.746 -0.2,-6.257 -0.3,-11.711 -0.3,-16.375 0,-4.668 0,-8.25 0,-10.746 v -2.508 c 9.1,21.914 17.6,43.723 25.2,65.469 3.3,9.266 6.5,18.934 9.6,28.985 3.1,10.066 6.2,20.05 9.3,29.949 3.1,9.898 5.7,19.703 7.8,29.41 2.1,9.707 3.6,18.922 4.5,27.644 z M 13695.2,512 c -10.9,-5.297 -20.6,-12.316 -29,-21.016 -8.5,-8.703 -15.6,-20.175 -21.2,-34.441 -5.7,-14.254 -10,-26.531 -13,-36.805 -2.9,-10.273 -4.4,-19.554 -4.4,-27.855 0,-2.574 0.3,-5.141 1.1,-7.715 0.7,-2.57 2.1,-4.891 4,-6.953 2,-2.051 4.8,-3.731 8.4,-5.012 3.7,-1.293 8.3,-1.937 14.1,-1.937 3,0 5.9,0.652 8.7,1.976 2.9,1.301 5.7,3.02 8.3,5.129 2.7,2.109 5.2,4.527 7.5,7.223 2.4,2.691 4.6,5.508 6.6,8.426 4.6,6.707 8.8,14.285 12.6,22.738 -0.5,2.32 -0.9,6.008 -1.2,11.07 -0.4,5.051 -0.7,12.766 -0.8,23.125 -0.2,10.359 -0.3,18.863 -0.5,25.492 -0.2,6.633 -0.3,12.676 -0.4,18.153 -0.1,5.476 -0.2,9.945 -0.4,13.429 -0.1,3.481 -0.3,5.141 -0.4,4.973 z m 170.9,-145.656 c -11.7,-9.598 -23.2,-18.164 -34.5,-25.672 -4.8,-3.137 -9.8,-6.246 -15.1,-9.305 -5.2,-3.047 -10.4,-5.762 -15.5,-8.117 -5.1,-2.359 -10.1,-4.273 -14.9,-5.766 -4.8,-1.476 -9.2,-2.218 -13.2,-2.218 -2.3,0 -5.8,0.523 -10.5,1.57 -4.6,1.059 -9.6,3.184 -15.1,6.422 -5.5,3.226 -11,7.902 -16.4,14.008 -5.5,6.121 -10.2,14.238 -14.3,24.359 -6.1,-6.285 -12.5,-12.262 -19.4,-17.934 -6.8,-5.671 -13.9,-10.609 -21.3,-14.789 -7.3,-4.195 -14.7,-7.558 -22.2,-10.082 -7.5,-2.535 -15.1,-3.8 -22.7,-3.8 -10.7,0 -19.9,2.222 -27.7,6.668 -7.8,4.453 -14.3,10.363 -19.5,17.753 -5.2,7.379 -9.1,15.754 -11.6,25.125 -2.6,9.36 -3.8,19.059 -3.8,29.067 0,10.672 1.3,21.476 4.1,32.418 2.7,10.922 6.6,21.523 11.8,31.785 5.2,10.258 10.9,20.984 17.3,32.172 6.3,11.18 14.7,21.359 25.1,30.543 10.4,9.176 21.2,16.101 32.2,20.777 11,4.668 22.7,7.59 35.3,8.762 0.5,21.359 2.7,40.183 6.8,56.461 4,16.273 8.3,33.785 13,52.539 4.7,18.75 10.7,36.015 18,51.801 7.4,15.785 15.4,29.429 24.2,40.937 8.8,11.508 18.1,20.512 28.1,27.004 9.9,6.488 20.1,9.742 30.7,9.742 7.7,0 14.3,-2.019 19.8,-6.054 5.4,-4.036 9.8,-9.387 13.1,-16.063 3.4,-6.672 5.8,-14.41 7.3,-23.223 1.5,-8.812 2.2,-17.914 2.2,-27.3 0,-5.864 0,-11.891 -0.1,-18.079 -0.5,-23.609 -4.2,-45.582 -10.9,-65.921 -6.8,-20.329 -13.6,-40.438 -20.3,-60.305 -6.6,-19.875 -14.6,-39.535 -24,-58.977 -14.4,-29.765 -23.5,-49.972 -27.5,-60.609 -0.8,-2.324 -1.7,-5.156 -2.6,-8.484 -0.8,-3.325 -1.6,-6.934 -2.4,-10.84 -0.8,-3.907 -1.4,-7.903 -1.9,-11.977 -0.5,-4.074 -0.8,-8.023 -0.8,-11.84 0,-4.824 0.3,-9.402 0.9,-13.722 0.5,-4.321 1.4,-8.192 2.7,-11.594 1.3,-3.41 3,-6.117 5.2,-8.109 2.2,-1.993 4.8,-2.989 8,-2.989 3.2,0 6.6,0.621 10.3,1.864 3.7,1.242 7.6,2.937 11.7,5.101 4.1,2.149 8.2,4.598 12.4,7.332 4.2,2.738 8.3,5.512 12.3,8.336 9,6.629 18.4,14.176 28.3,22.629 l 7.4,-51.406" /><path
             id="path110"
             style="fill:#ffffff;fill-opacity:1;fill-rule:nonzero;stroke:none"
             d="m 13899.6,395.465 c 0,-4.242 0.3,-8.356 0.9,-12.34 0.5,-3.988 1.6,-7.547 3.1,-10.684 1.4,-3.14 3.4,-5.683 5.9,-7.64 2.5,-1.942 5.6,-2.922 9.4,-2.922 6.1,0 11.6,2.648 16.5,7.945 5,5.297 9.3,11.672 12.9,19.121 3.6,7.45 6.5,15.153 8.8,23.094 2.2,7.941 3.6,14.57 4.3,19.867 l 18.4,80.18 c -6.8,0 -13.4,-1.676 -19.8,-5.012 -6.4,-3.344 -12.4,-7.863 -18.1,-13.574 -5.7,-5.699 -10.9,-12.223 -15.7,-19.555 -4.7,-7.336 -9.4,-16.386 -14,-27.14 -4.6,-10.762 -7.9,-20.215 -9.7,-28.364 -1.9,-8.148 -2.9,-15.816 -2.9,-22.976 z m 211.6,-19.328 c -3.8,-5.317 -8.8,-11.551 -15.2,-18.703 -6.3,-7.153 -13.4,-13.973 -21.3,-20.454 -7.9,-6.48 -16.4,-11.976 -25.4,-16.464 -9,-4.489 -18.1,-6.731 -27.1,-6.731 -11,0 -20.1,3.457 -27.4,10.379 -7.3,6.918 -13.6,16.961 -18.8,30.152 -4,-4.558 -8.9,-9.195 -14.7,-13.914 -5.8,-4.722 -12.2,-8.992 -19,-12.824 -6.9,-3.816 -14.1,-6.953 -21.6,-9.39 -7.4,-2.446 -14.9,-3.661 -22.3,-3.661 -7.9,0 -15.6,1.618 -23.1,4.852 -7.5,3.238 -14.1,7.875 -19.8,13.93 -5.8,6.062 -10.4,13.441 -13.9,22.148 -3.4,8.715 -5.1,18.539 -5.1,29.492 0,12.281 1.7,24.899 5.2,37.844 3.5,12.945 8.8,26.941 16.1,42.027 7.3,15.078 15.1,28.098 23.4,39.078 8.4,10.969 17.5,20.563 27.5,28.75 9.9,8.196 20.4,14.711 31.4,19.543 10.9,4.832 22.2,7.25 33.6,7.25 3.8,0 6.8,-0.75 8.9,-2.238 2.2,-1.496 3.9,-3.207 5.3,-5.109 1.4,-1.914 2.8,-3.789 4.1,-5.614 1.4,-1.824 3,-3.16 5,-3.988 2,-0.828 4,-1.371 6.1,-1.617 2.1,-0.246 4.1,-0.375 6.3,-0.375 1.8,0 3.7,0.039 5.6,0.129 1.9,0.082 3.8,0.117 5.6,0.117 2.4,0 4.8,-0.246 6.9,-0.742 2.2,-0.5 4.1,-1.574 5.7,-3.242 1.7,-1.668 3,-3.985 3.8,-6.973 1,-2.992 1.4,-7.066 1.4,-12.219 0,-7.859 -0.8,-16.582 -2.5,-26.16 -1.6,-9.578 -3.5,-19.398 -5.6,-29.453 -2.1,-10.051 -4.5,-21.504 -7.3,-34.379 -2.7,-12.863 -4,-23.707 -4,-32.527 0,-7.539 0.7,-13.426 2.1,-17.668 1.4,-4.254 4.4,-6.375 9,-6.375 3.4,0 7,0.855 10.8,2.562 3.8,1.719 7.6,3.957 11.5,6.723 3.8,2.773 7.7,5.91 11.6,9.422 3.8,3.504 7.5,7.129 11,10.883 8,8.8 16.2,18.742 24.4,29.824 l 11.8,-54.285" /><path
             id="path112"
             style="fill:#ffffff;fill-opacity:1;fill-rule:nonzero;stroke:none"
             d="m 14241.4,367.555 c -5.9,-5.426 -13.2,-11.219 -22,-17.391 -8.8,-6.16 -18.3,-11.84 -28.5,-17.012 -10.2,-5.187 -20.6,-9.5 -31.2,-12.953 -10.6,-3.453 -20.7,-5.179 -30.2,-5.179 -8.6,0 -15.8,1.195 -21.6,3.574 -5.8,2.383 -10.6,5.711 -14.2,9.992 -3.6,4.269 -6.2,9.5 -7.8,15.656 -1.5,6.18 -2.3,12.953 -2.3,20.356 0,10.355 1.1,22.441 3.4,36.254 4.8,28.57 7.9,44.613 9.2,48.144 2.2,7.024 31.1,159.656 37.9,183.75 6.2,19.641 10,32.418 11.5,38.348 0.8,4.152 3.1,7.89 6.8,11.226 3.4,2.989 7.2,5.446 11.5,7.348 4.3,1.914 8.7,3.324 13.3,4.246 4.6,0.914 8.8,1.367 12.5,1.367 6.8,0 11.4,-1.269 13.8,-3.828 2.4,-2.543 3.6,-5.957 3.6,-10.23 0,-3.618 -0.8,-8.731 -2.5,-15.332 -1.7,-6.61 -3.6,-14.133 -5.7,-22.579 -2.2,-8.457 -5.4,-19.316 -9.6,-32.597 -4.3,-13.277 -31.6,-161.68 -33.1,-171.039 -1.6,-9.375 -3.5,-18.688 -5.9,-27.934 -2.4,-9.242 -3.6,-17.648 -3.6,-25.203 0,-7.402 0.9,-13.269 2.5,-17.633 1.6,-4.351 5,-6.531 10.1,-6.531 5.9,0 12.5,2.051 19.7,6.168 7.3,4.102 14.6,9.086 22,14.926 7.4,5.832 14.6,11.867 21.7,18.125 7.1,6.242 13.3,11.59 18.7,16.027 v -50.066" /><path
             id="path114"
             style="fill:#ffffff;fill-opacity:1;fill-rule:nonzero;stroke:none"
             d="m 14285.4,395.465 c 0,-4.242 0.3,-8.356 0.9,-12.34 0.6,-3.988 1.6,-7.547 3.1,-10.684 1.5,-3.14 3.4,-5.683 5.9,-7.64 2.5,-1.942 5.6,-2.922 9.4,-2.922 6.1,0 11.6,2.648 16.6,7.945 4.9,5.297 9.2,11.672 12.8,19.121 3.6,7.45 6.6,15.153 8.8,23.094 2.2,7.941 3.7,14.57 4.3,19.867 l 18.4,80.18 c -6.8,0 -13.3,-1.676 -19.7,-5.012 -6.5,-3.344 -12.5,-7.863 -18.2,-13.574 -5.7,-5.699 -10.9,-12.223 -15.6,-19.555 -4.8,-7.336 -9.5,-16.386 -14.1,-27.14 -4.6,-10.762 -7.8,-20.215 -9.7,-28.364 -1.9,-8.148 -2.9,-15.816 -2.9,-22.976 z m 211.6,-19.328 c -3.7,-5.317 -8.8,-11.551 -15.1,-18.703 -6.4,-7.153 -13.5,-13.973 -21.4,-20.454 -7.9,-6.48 -16.3,-11.976 -25.4,-16.464 -9,-4.489 -18,-6.731 -27.1,-6.731 -10.9,0 -20,3.457 -27.3,10.379 -7.3,6.918 -13.6,16.961 -18.9,30.152 -4,-4.558 -8.9,-9.195 -14.7,-13.914 -5.8,-4.722 -12.1,-8.992 -19,-12.824 -6.9,-3.816 -14.1,-6.953 -21.5,-9.39 -7.5,-2.446 -14.9,-3.661 -22.4,-3.661 -7.9,0 -15.6,1.618 -23,4.852 -7.6,3.238 -14.2,7.875 -19.9,13.93 -5.8,6.062 -10.4,13.441 -13.8,22.148 -3.5,8.715 -5.2,18.539 -5.2,29.492 0,12.281 1.7,24.899 5.2,37.844 3.5,12.945 8.8,26.941 16.1,42.027 7.3,15.078 15.1,28.098 23.5,39.078 8.3,10.969 17.5,20.563 27.4,28.75 9.9,8.196 20.4,14.711 31.4,19.543 11,4.832 22.2,7.25 33.6,7.25 3.8,0 6.8,-0.75 8.9,-2.238 2.2,-1.496 4,-3.207 5.4,-5.109 1.4,-1.914 2.7,-3.789 4,-5.614 1.4,-1.824 3.1,-3.16 5,-3.988 2,-0.828 4,-1.371 6.1,-1.617 2.1,-0.246 4.2,-0.375 6.3,-0.375 1.8,0 3.7,0.039 5.6,0.129 1.9,0.082 3.8,0.117 5.6,0.117 2.5,0 4.8,-0.246 6.9,-0.742 2.2,-0.5 4.1,-1.574 5.8,-3.242 1.6,-1.668 2.9,-3.985 3.8,-6.973 0.9,-2.992 1.3,-7.066 1.3,-12.219 0,-7.859 -0.8,-16.582 -2.4,-26.16 -1.7,-9.578 -3.6,-19.398 -5.7,-29.453 -2.1,-10.051 -4.5,-21.504 -7.3,-34.379 -2.7,-12.863 -4,-23.707 -4,-32.527 0,-7.539 0.7,-13.426 2.1,-17.668 1.4,-4.254 4.4,-6.375 9,-6.375 3.5,0 7,0.855 10.9,2.562 3.7,1.719 7.5,3.957 11.4,6.723 3.9,2.773 7.7,5.91 11.6,9.422 3.9,3.504 7.5,7.129 11,10.883 8,8.8 16.2,18.742 24.4,29.824 l 11.8,-54.285" /><path
             id="path116"
             style="fill:#ffffff;fill-opacity:1;fill-rule:nonzero;stroke:none"
             d="m 14206.7,580.137 c 1.3,0.609 3.5,0.824 6.5,0.652 3.1,-0.184 6.7,-0.234 10.7,-0.168 4,0.07 8.4,0.152 13.1,0.262 4.7,0.097 9.2,0.172 13.6,0.234 4.4,0.051 8.5,0.09 12.3,0.121 3.8,0.024 6.9,0.012 9.4,-0.023 3,-0.035 5.2,-1.766 6.7,-5.188 1.5,-3.422 2.3,-7.797 2.6,-13.117 0.3,-6.16 -0.9,-11.258 -3.6,-15.273 -2.8,-4.028 -5.9,-6.117 -9.4,-6.293 l -84.2,-4.231 -73.1,4.27 c -4.5,0.512 -7.9,1.031 -10.4,1.555 -2.5,0.515 -5.1,1.031 -7.8,1.535 -2.8,0.507 -6.3,1.019 -10.5,1.547 -4.2,0.523 -10.4,1.136 -18.3,1.839 -3.6,0.375 -6.4,1.293 -8.4,2.762 -2,1.457 -3.4,3.223 -4.5,5.293 -0.9,2.063 -1.6,4.238 -1.8,6.531 -0.3,2.293 -0.5,4.258 -0.5,5.91 -0.2,2.602 1.2,4.661 3.9,6.172 2.9,1.516 6.5,2.723 10.9,3.633 4.5,0.91 9.4,1.539 14.7,1.899 5.4,0.347 10.5,0.558 15.4,0.644 5,0.082 9.4,0.18 13.3,0.297 3.9,0.105 6.6,0.363 8,0.77 l 91.4,-1.633" /></g></g></g></g></svg>