<?xml version="1.0" encoding="UTF-8" standalone="no"?>
<svg
   xmlns:dc="http://purl.org/dc/elements/1.1/"
   xmlns:cc="http://creativecommons.org/ns#"
   xmlns:rdf="http://www.w3.org/1999/02/22-rdf-syntax-ns#"
   xmlns:svg="http://www.w3.org/2000/svg"
   xmlns="http://www.w3.org/2000/svg"
   viewBox="0 0 688.70667 589.02667"
   height="589.02667"
   width="688.70667"
   xml:space="preserve"
   id="svg2"
   version="1.1"><metadata
     id="metadata8"><rdf:RDF><cc:Work
         rdf:about=""><dc:format>image/svg+xml</dc:format><dc:type
           rdf:resource="http://purl.org/dc/dcmitype/StillImage" /></cc:Work></rdf:RDF></metadata><defs
     id="defs6"><clipPath
       id="clipPath20"
       clipPathUnits="userSpaceOnUse"><path
         id="path18"
         d="M 0,0 H 5165 V 4417.73 H 0 Z" /></clipPath></defs><g
     transform="matrix(1.3333333,0,0,-1.3333333,0,589.02667)"
     id="g10"><g
       transform="scale(0.1)"
       id="g12"><g
         id="g14"><g
           clip-path="url(#clipPath20)"
           id="g16"><path
             id="path22"
             style="fill:#af783c;fill-opacity:1;fill-rule:nonzero;stroke:none"
             d="m 18.9023,321 c 4.7852,-0.66 11.7383,-0.871 19.1211,-0.871 40.6328,0 62.3636,22.601 62.3636,62.152 0.215,34.539 -19.3362,56.481 -59.3167,56.481 -9.7812,0 -17.168,-0.864 -22.168,-1.953 z M 0,450.5 c 11.5195,1.949 25.207,3.262 40.1992,3.262 27.1602,0 46.4961,-6.524 59.3164,-18.25 C 112.77,423.559 120.375,406.609 120.375,382.922 120.375,359.02 112.77,339.461 99.3008,326 85.3945,312.309 62.7969,304.91 34.332,304.91 20.6406,304.91 9.5625,305.57 0,306.648 V 450.5" /><path
             id="path24"
             style="fill:#af783c;fill-opacity:1;fill-rule:nonzero;stroke:none"
             d="m 156.914,358.578 c 0,-23.019 13.035,-40.406 31.723,-40.406 18.254,0 31.945,17.168 31.945,40.848 0,17.82 -8.91,40.199 -31.512,40.199 -22.375,0 -32.156,-20.86 -32.156,-40.641 z m 83.219,1.102 c 0,-38.899 -27.16,-55.852 -52.363,-55.852 -28.25,0 -50.411,20.863 -50.411,54.113 0,34.981 23.25,55.618 52.149,55.618 30.203,0 50.625,-21.95 50.625,-53.879" /><path
             id="path26"
             style="fill:#af783c;fill-opacity:1;fill-rule:nonzero;stroke:none"
             d="m 270.371,411.391 14.125,-53.45 c 2.824,-11.742 5.645,-22.601 7.606,-33.472 h 0.648 c 2.391,10.652 5.867,21.953 9.344,33.25 l 17.168,53.672 h 16.074 l 16.301,-52.59 c 3.91,-12.602 6.953,-23.68 9.343,-34.332 h 0.653 c 1.734,10.652 4.562,21.73 8.039,34.109 l 14.992,52.813 H 403.57 L 369.672,306.219 h -17.383 l -16.082,50.203 c -3.691,11.726 -6.734,22.148 -9.344,34.547 h -0.433 c -2.606,-12.61 -5.868,-23.477 -9.559,-34.77 l -16.949,-49.98 h -17.383 l -31.723,105.172 h 19.555" /><path
             id="path28"
             style="fill:#af783c;fill-opacity:1;fill-rule:nonzero;stroke:none"
             d="m 422.73,382.922 c 0,11.078 -0.218,19.777 -0.871,28.469 h 16.946 L 439.895,394 h 0.433 c 5.215,9.781 17.383,19.559 34.766,19.559 14.558,0 37.156,-8.688 37.156,-44.758 v -62.582 h -19.121 v 60.633 c 0,16.937 -6.305,31.07 -24.336,31.07 -12.387,0 -22.168,-8.922 -25.645,-19.563 -0.867,-2.39 -1.296,-5.648 -1.296,-8.91 v -63.23 H 422.73 v 76.703" /><path
             id="path30"
             style="fill:#af783c;fill-opacity:1;fill-rule:nonzero;stroke:none"
             d="m 543.355,306.219 h 19.1211 V 460.5 H 543.355 Z" /><path
             id="path32"
             style="fill:#af783c;fill-opacity:1;fill-rule:nonzero;stroke:none"
             d="m 606.594,358.578 c 0,-23.019 13.035,-40.406 31.722,-40.406 18.25,0 31.942,17.168 31.942,40.848 0,17.82 -8.91,40.199 -31.508,40.199 -22.379,0 -32.156,-20.86 -32.156,-40.641 z m 83.215,1.102 c 0,-38.899 -27.157,-55.852 -52.364,-55.852 -28.246,0 -50.41,20.863 -50.41,54.113 0,34.981 23.254,55.618 52.149,55.618 30.207,0 50.625,-21.95 50.625,-53.879" /><path
             id="path34"
             style="fill:#af783c;fill-opacity:1;fill-rule:nonzero;stroke:none"
             d="m 769.371,359.891 c -20.859,0.429 -44.543,-3.262 -44.543,-23.692 0,-12.597 8.254,-18.238 17.813,-18.238 13.906,0 22.82,8.687 25.859,17.598 0.656,2.171 0.871,4.339 0.871,6.082 z m 18.465,-28.461 c 0,-9.129 0.441,-18.039 1.523,-25.211 h -17.168 l -1.515,13.25 h -0.653 c -5.867,-8.25 -17.168,-15.641 -32.156,-15.641 -21.301,0 -32.16,14.992 -32.16,30.203 0,25.418 22.598,39.328 63.231,39.117 v 2.172 c 0,8.469 -2.391,24.34 -23.903,24.11 -9.996,0 -20.207,-2.821 -27.597,-7.821 l -4.348,12.821 c 8.691,5.429 21.515,9.129 34.765,9.129 32.161,0 39.981,-21.95 39.981,-42.809 v -39.32" /><path
             id="path36"
             style="fill:#af783c;fill-opacity:1;fill-rule:nonzero;stroke:none"
             d="m 890.426,368.578 c 0,2.391 -0.215,5.652 -0.871,8.043 -2.821,11.949 -13.25,21.938 -27.59,21.938 -19.774,0 -31.512,-17.379 -31.512,-40.411 0,-21.289 10.652,-38.886 31.074,-38.886 12.825,0 24.551,8.687 28.028,22.808 0.656,2.61 0.871,5.219 0.871,8.262 z M 909.332,460.5 V 333.379 c 0,-9.348 0.434,-19.988 0.867,-27.16 h -16.945 l -0.871,18.25 h -0.649 c -5.656,-11.727 -18.254,-20.641 -35.422,-20.641 -25.417,0 -45.195,21.512 -45.195,53.461 -0.215,34.981 21.731,56.27 47.149,56.27 16.3,0 26.945,-7.598 31.73,-15.86 h 0.43 V 460.5 h 18.906" /><path
             id="path38"
             style="fill:#af783c;fill-opacity:1;fill-rule:nonzero;stroke:none"
             d="m 981.293,306.219 v 11.742 l 14.992,14.551 c 36.065,34.34 52.585,52.59 52.585,73.879 0,14.339 -6.74,27.589 -27.82,27.589 -12.81,0 -23.46,-6.511 -29.98,-11.949 l -6.086,13.481 c 9.563,8.039 23.686,14.328 39.766,14.328 30.42,0 43.24,-20.86 43.24,-41.059 0,-26.07 -18.9,-47.152 -48.67,-75.832 l -11.08,-10.429 v -0.438 h 63.22 v -15.863 h -90.167" /><path
             id="path40"
             style="fill:#af783c;fill-opacity:1;fill-rule:nonzero;stroke:none"
             d="m 1110.17,376.18 c 0,-36.719 11.3,-57.578 28.68,-57.578 19.34,0 28.68,22.82 28.68,58.89 0,34.77 -8.69,57.578 -28.68,57.578 -16.51,0 -28.68,-20.422 -28.68,-58.89 z m 76.7,2.179 c 0,-48.019 -18.04,-74.531 -49.11,-74.531 -27.59,0 -46.5,25.863 -46.93,72.582 0,47.578 20.64,73.43 49.32,73.43 29.55,0 46.72,-26.5 46.72,-71.481" /><path
             id="path42"
             style="fill:#af783c;fill-opacity:1;fill-rule:nonzero;stroke:none"
             d="m 1221.67,376.18 c 0,-36.719 11.29,-57.578 28.68,-57.578 19.33,0 28.68,22.82 28.68,58.89 0,34.77 -8.69,57.578 -28.68,57.578 -16.52,0 -28.68,-20.422 -28.68,-58.89 z m 76.69,2.179 c 0,-48.019 -18.03,-74.531 -49.1,-74.531 -27.59,0 -46.5,25.863 -46.94,72.582 0,47.578 20.64,73.43 49.33,73.43 29.55,0 46.71,-26.5 46.71,-71.481" /><path
             id="path44"
             style="fill:#af783c;fill-opacity:1;fill-rule:nonzero;stroke:none"
             d="m 1309.47,279.281 c 4.78,13.028 10.65,36.289 13.04,52.149 l 21.29,2.172 c -5.21,-18.473 -14.77,-42.59 -20.86,-52.801 l -13.47,-1.52" /><path
             id="path46"
             style="fill:#af783c;fill-opacity:1;fill-rule:nonzero;stroke:none"
             d="m 1378.14,376.18 c 0,-36.719 11.3,-57.578 28.68,-57.578 19.34,0 28.68,22.82 28.68,58.89 0,34.77 -8.69,57.578 -28.68,57.578 -16.51,0 -28.68,-20.422 -28.68,-58.89 z m 76.7,2.179 c 0,-48.019 -18.03,-74.531 -49.1,-74.531 -27.6,0 -46.5,25.863 -46.94,72.582 0,47.578 20.65,73.43 49.33,73.43 29.55,0 46.71,-26.5 46.71,-71.481" /><path
             id="path48"
             style="fill:#af783c;fill-opacity:1;fill-rule:nonzero;stroke:none"
             d="m 1489.63,376.18 c 0,-36.719 11.3,-57.578 28.69,-57.578 19.34,0 28.68,22.82 28.68,58.89 0,34.77 -8.69,57.578 -28.68,57.578 -16.52,0 -28.69,-20.422 -28.69,-58.89 z m 76.71,2.179 c 0,-48.019 -18.03,-74.531 -49.11,-74.531 -27.6,0 -46.5,25.863 -46.93,72.582 0,47.578 20.64,73.43 49.32,73.43 29.55,0 46.72,-26.5 46.72,-71.481" /><path
             id="path50"
             style="fill:#af783c;fill-opacity:1;fill-rule:nonzero;stroke:none"
             d="m 1601.13,376.18 c 0,-36.719 11.3,-57.578 28.68,-57.578 19.35,0 28.68,22.82 28.68,58.89 0,34.77 -8.69,57.578 -28.68,57.578 -16.51,0 -28.68,-20.422 -28.68,-58.89 z m 76.7,2.179 c 0,-48.019 -18.03,-74.531 -49.1,-74.531 -27.6,0 -46.5,25.863 -46.94,72.582 0,47.578 20.65,73.43 49.33,73.43 29.55,0 46.71,-26.5 46.71,-71.481" /><path
             id="path52"
             style="fill:#af783c;fill-opacity:1;fill-rule:nonzero;stroke:none"
             d="m 1757.16,421.82 v -51.07 h 49.11 v -13.031 h -49.11 v -51.5 h -13.9 v 51.5 h -49.1 v 13.031 h 49.1 v 51.07 h 13.9" /><path
             id="path54"
             style="fill:#af783c;fill-opacity:1;fill-rule:nonzero;stroke:none"
             d="m 1895.83,348.371 c 0,-2.383 0.23,-4.781 0.88,-6.949 3.48,-13.262 14.77,-22.383 28.68,-22.383 20.21,0 31.94,16.301 31.94,40.41 0,21.09 -10.86,39.11 -31.5,39.11 -12.83,0 -25,-9.118 -28.9,-23.457 -0.66,-2.391 -1.1,-4.993 -1.1,-8.043 z M 1876.94,460.5 h 18.89 v -66.059 h 0.44 c 6.74,11.731 18.91,19.118 35.85,19.118 26.29,0 44.55,-21.727 44.55,-53.45 0,-37.589 -23.9,-56.281 -47.37,-56.281 -15.2,0 -27.37,5.871 -35.42,19.563 h -0.43 l -1.09,-17.172 h -16.29 c 0.43,7.172 0.87,17.812 0.87,27.16 V 460.5" /><path
             id="path56"
             style="fill:#af783c;fill-opacity:1;fill-rule:nonzero;stroke:none"
             d="m 2000.6,378.57 c 0,12.399 -0.21,23.039 -0.87,32.821 h 16.73 l 0.87,-20.86 h 0.65 c 4.78,14.117 16.52,23.028 29.34,23.028 1.95,0 3.48,-0.219 5.21,-0.43 V 395.09 c -1.96,0.441 -3.91,0.441 -6.52,0.441 -13.48,0 -23.03,-10 -25.64,-24.34 -0.43,-2.613 -0.65,-5.871 -0.65,-8.91 v -56.062 h -19.12 v 72.351" /><path
             id="path58"
             style="fill:#af783c;fill-opacity:1;fill-rule:nonzero;stroke:none"
             d="m 2125.99,359.891 c -20.86,0.429 -44.54,-3.262 -44.54,-23.692 0,-12.597 8.25,-18.238 17.81,-18.238 13.91,0 22.82,8.687 25.86,17.598 0.66,2.171 0.87,4.339 0.87,6.082 z m 18.47,-28.461 c 0,-9.129 0.44,-18.039 1.52,-25.211 h -17.17 l -1.51,13.25 h -0.65 c -5.87,-8.25 -17.17,-15.641 -32.16,-15.641 -21.3,0 -32.16,14.992 -32.16,30.203 0,25.418 22.6,39.328 63.23,39.117 v 2.172 c 0,8.469 -2.39,24.34 -23.9,24.11 -10,0 -20.21,-2.821 -27.6,-7.821 l -4.35,12.821 c 8.69,5.429 21.52,9.129 34.77,9.129 32.16,0 39.98,-21.95 39.98,-42.809 v -39.32" /><path
             id="path60"
             style="fill:#af783c;fill-opacity:1;fill-rule:nonzero;stroke:none"
             d="m 2175.35,382.922 c 0,11.078 -0.22,19.777 -0.87,28.469 h 16.94 L 2192.51,394 h 0.43 c 5.22,9.781 17.39,19.559 34.77,19.559 14.56,0 37.16,-8.688 37.16,-44.758 v -62.582 h -19.12 v 60.633 c 0,16.937 -6.3,31.07 -24.34,31.07 -12.39,0 -22.17,-8.922 -25.64,-19.563 -0.87,-2.39 -1.3,-5.648 -1.3,-8.91 v -63.23 h -19.12 v 76.703" /><path
             id="path62"
             style="fill:#af783c;fill-opacity:1;fill-rule:nonzero;stroke:none"
             d="m 2367.67,368.578 c 0,2.391 -0.21,5.652 -0.87,8.043 -2.82,11.949 -13.25,21.938 -27.59,21.938 -19.77,0 -31.51,-17.379 -31.51,-40.411 0,-21.289 10.65,-38.886 31.07,-38.886 12.83,0 24.56,8.687 28.03,22.808 0.66,2.61 0.87,5.219 0.87,8.262 z m 18.91,91.922 V 333.379 c 0,-9.348 0.43,-19.988 0.87,-27.16 h -16.95 l -0.88,18.25 h -0.64 c -5.65,-11.727 -18.25,-20.641 -35.42,-20.641 -25.42,0 -45.2,21.512 -45.2,53.461 -0.21,34.981 21.73,56.27 47.15,56.27 16.3,0 26.95,-7.598 31.73,-15.86 h 0.43 V 460.5 h 18.91" /><path
             id="path64"
             style="fill:#af783c;fill-opacity:1;fill-rule:nonzero;stroke:none"
             d="m 2464.62,306.219 h 19.1289 V 460.5 H 2464.62 Z" /><path
             id="path66"
             style="fill:#af783c;fill-opacity:1;fill-rule:nonzero;stroke:none"
             d="m 2527.87,358.578 c 0,-23.019 13.03,-40.406 31.72,-40.406 18.25,0 31.94,17.168 31.94,40.848 0,17.82 -8.91,40.199 -31.51,40.199 -22.38,0 -32.15,-20.86 -32.15,-40.641 z m 83.22,1.102 c 0,-38.899 -27.16,-55.852 -52.37,-55.852 -28.25,0 -50.41,20.863 -50.41,54.113 0,34.981 23.25,55.618 52.14,55.618 30.21,0 50.64,-21.95 50.64,-53.879" /><path
             id="path68"
             style="fill:#af783c;fill-opacity:1;fill-rule:nonzero;stroke:none"
             d="m 2706.07,369.879 c 0,3.269 -0.22,6.09 -1.09,8.48 -3.48,11.301 -12.6,20.422 -26.72,20.422 -18.26,0 -31.29,-15.422 -31.29,-39.761 0,-20.641 10.64,-37.809 31.07,-37.809 11.95,0 22.6,7.391 26.51,19.559 1.08,3.261 1.52,6.96 1.52,10.218 z m 19.12,-48.231 c 0,-24.339 -5,-38.898 -15,-48.238 -10.43,-9.34 -25.19,-12.601 -38.46,-12.601 -12.59,0 -26.5,3.043 -34.98,8.691 l 4.79,14.781 c 6.95,-4.562 17.81,-8.48 30.85,-8.48 19.56,0 33.89,10.219 33.89,36.941 v 11.52 h -0.43 c -5.65,-9.782 -17.16,-17.614 -33.46,-17.614 -26.08,0 -44.76,22.172 -44.76,51.293 0,35.618 23.24,55.618 47.58,55.618 18.25,0 28.03,-9.34 32.81,-18.028 h 0.43 l 0.66,15.86 h 16.95 c -0.65,-7.403 -0.87,-16.09 -0.87,-28.68 v -61.063" /><path
             id="path70"
             style="fill:#af783c;fill-opacity:1;fill-rule:nonzero;stroke:none"
             d="m 2768.68,358.578 c 0,-23.019 13.03,-40.406 31.73,-40.406 18.24,0 31.93,17.168 31.93,40.848 0,17.82 -8.91,40.199 -31.51,40.199 -22.38,0 -32.15,-20.86 -32.15,-40.641 z m 83.22,1.102 c 0,-38.899 -27.16,-55.852 -52.37,-55.852 -28.25,0 -50.41,20.863 -50.41,54.113 0,34.981 23.25,55.618 52.14,55.618 30.21,0 50.64,-21.95 50.64,-53.879" /><path
             id="path72"
             style="fill:#af783c;fill-opacity:1;fill-rule:nonzero;stroke:none"
             d="m 2873.43,325.559 c 5.87,-3.477 15.86,-7.387 25.43,-7.387 13.68,0 20.21,6.738 20.21,15.648 0,9.121 -5.44,13.91 -19.35,19.121 -19.12,6.95 -28.03,17.168 -28.03,29.77 0,16.949 13.91,30.848 36.29,30.848 10.65,0 19.99,-2.829 25.65,-6.52 l -4.57,-13.898 c -4.12,2.597 -11.73,6.289 -21.51,6.289 -11.3,0 -17.38,-6.508 -17.38,-14.328 0,-8.692 6.08,-12.61 19.77,-18.043 18.03,-6.739 27.59,-15.86 27.59,-31.5 0,-18.688 -14.56,-31.731 -39.11,-31.731 -11.51,0 -22.16,3.051 -29.55,7.391 l 4.56,14.34" /><path
             id="path74"
             style="fill:#af783c;fill-opacity:1;fill-rule:nonzero;stroke:none"
             d="m 3008.19,306.219 v 105.172 h 19.12 V 306.219 Z m 21.3,134.722 c 0,-6.519 -4.57,-11.73 -12.17,-11.73 -6.95,0 -11.52,5.211 -11.52,11.73 0,6.508 4.78,11.95 11.95,11.95 6.95,0 11.74,-5.211 11.74,-11.95" /><path
             id="path76"
             style="fill:#af783c;fill-opacity:1;fill-rule:nonzero;stroke:none"
             d="m 3059.04,382.922 c 0,11.078 -0.22,19.777 -0.87,28.469 h 16.95 L 3076.21,394 h 0.43 c 5.21,9.781 17.38,19.559 34.76,19.559 14.56,0 37.16,-8.688 37.16,-44.758 v -62.582 h -19.12 v 60.633 c 0,16.937 -6.3,31.07 -24.34,31.07 -12.38,0 -22.16,-8.922 -25.63,-19.563 -0.87,-2.39 -1.31,-5.648 -1.31,-8.91 v -63.23 h -19.12 v 76.703" /><path
             id="path78"
             style="fill:#af783c;fill-opacity:1;fill-rule:nonzero;stroke:none"
             d="m 3233.13,411.391 20.63,-58.891 c 3.48,-9.77 6.31,-18.469 8.48,-27.16 h 0.66 c 2.39,8.691 5.43,17.39 8.9,27.16 l 20.43,58.891 h 19.99 l -41.29,-105.172 h -18.25 l -39.98,105.172 h 20.43" /><path
             id="path80"
             style="fill:#af783c;fill-opacity:1;fill-rule:nonzero;stroke:none"
             d="m 3394.82,369.012 c 0.21,11.957 -5,30.859 -26.5,30.859 -19.57,0 -27.82,-17.59 -29.34,-30.859 z m -56.06,-13.692 c 0.43,-25.851 16.73,-36.5 36.07,-36.5 13.69,0 22.16,2.391 29.11,5.442 l 3.48,-13.692 c -6.73,-3.039 -18.47,-6.742 -35.2,-6.742 -32.37,0 -51.72,21.512 -51.72,53.231 0,31.73 18.69,56.5 49.33,56.5 34.55,0 43.46,-29.989 43.46,-49.321 0,-3.918 -0.22,-6.738 -0.66,-8.918 h -73.87" /><path
             id="path82"
             style="fill:#af783c;fill-opacity:1;fill-rule:nonzero;stroke:none"
             d="m 3511.97,309.91 c -5,-2.379 -16.09,-6.082 -30.21,-6.082 -31.73,0 -52.37,21.512 -52.37,53.672 0,32.371 22.17,56.059 56.5,56.059 11.29,0 21.29,-2.829 26.51,-5.649 l -4.35,-14.558 c -4.56,2.386 -11.73,5 -22.16,5 -24.12,0 -37.15,-18.043 -37.15,-39.774 0,-24.328 15.64,-39.316 36.5,-39.316 10.86,0 18.04,2.609 23.47,5 l 3.26,-14.352" /><path
             id="path84"
             style="fill:#af783c;fill-opacity:1;fill-rule:nonzero;stroke:none"
             d="m 3560.22,436.59 v -25.199 h 27.37 v -14.559 h -27.37 v -56.711 c 0,-13.039 3.69,-20.422 14.34,-20.422 5.21,0 8.26,0.43 11.08,1.301 l 0.87,-14.559 c -3.69,-1.3 -9.56,-2.613 -16.94,-2.613 -8.92,0 -16.09,3.051 -20.65,8.043 -5.21,5.859 -7.39,15.211 -7.39,27.59 v 57.371 h -16.3 v 14.559 h 16.3 v 19.558 l 18.69,5.641" /><path
             id="path86"
             style="fill:#af783c;fill-opacity:1;fill-rule:nonzero;stroke:none"
             d="m 3619.78,358.578 c 0,-23.019 13.04,-40.406 31.72,-40.406 18.26,0 31.94,17.168 31.94,40.848 0,17.82 -8.9,40.199 -31.5,40.199 -22.38,0 -32.16,-20.86 -32.16,-40.641 z m 83.22,1.102 c 0,-38.899 -27.17,-55.852 -52.36,-55.852 -28.25,0 -50.41,20.863 -50.41,54.113 0,34.981 23.24,55.618 52.15,55.618 30.19,0 50.62,-21.95 50.62,-53.879" /><path
             id="path88"
             style="fill:#af783c;fill-opacity:1;fill-rule:nonzero;stroke:none"
             d="m 3727.14,378.57 c 0,12.399 -0.21,23.039 -0.87,32.821 H 3743 l 0.88,-20.86 h 0.65 c 4.78,14.117 16.51,23.028 29.33,23.028 1.96,0 3.48,-0.219 5.22,-0.43 V 395.09 c -1.96,0.441 -3.91,0.441 -6.53,0.441 -13.46,0 -23.02,-10 -25.63,-24.34 -0.44,-2.613 -0.66,-5.871 -0.66,-8.91 v -56.062 h -19.12 v 72.351" /><path
             id="path90"
             style="fill:#af783c;fill-opacity:1;fill-rule:nonzero;stroke:none"
             d="m 3846.25,306.219 v 90.613 h -14.56 v 14.559 h 14.56 v 5 c 0,14.769 3.47,28.238 12.16,36.718 7.18,6.95 16.74,9.77 25.65,9.77 6.95,0 12.6,-1.52 16.3,-3.039 l -2.61,-14.77 c -2.83,1.301 -6.52,2.379 -12.17,2.379 -16.3,0 -20.43,-14.117 -20.43,-30.41 v -5.648 h 25.43 v -14.559 h -25.43 v -90.613 h -18.9" /><path
             id="path92"
             style="fill:#af783c;fill-opacity:1;fill-rule:nonzero;stroke:none"
             d="m 3916.88,358.578 c 0,-23.019 13.04,-40.406 31.73,-40.406 18.24,0 31.93,17.168 31.93,40.848 0,17.82 -8.9,40.199 -31.5,40.199 -22.38,0 -32.16,-20.86 -32.16,-40.641 z m 83.22,1.102 c 0,-38.899 -27.16,-55.852 -52.37,-55.852 -28.24,0 -50.41,20.863 -50.41,54.113 0,34.981 23.25,55.618 52.15,55.618 30.2,0 50.63,-21.95 50.63,-53.879" /><path
             id="path94"
             style="fill:#af783c;fill-opacity:1;fill-rule:nonzero;stroke:none"
             d="m 4024.24,378.57 c 0,12.399 -0.21,23.039 -0.87,32.821 h 16.74 l 0.86,-20.86 h 0.66 c 4.78,14.117 16.51,23.028 29.33,23.028 1.96,0 3.48,-0.219 5.22,-0.43 V 395.09 c -1.96,0.441 -3.92,0.441 -6.52,0.441 -13.47,0 -23.03,-10 -25.64,-24.34 -0.43,-2.613 -0.66,-5.871 -0.66,-8.91 v -56.062 h -19.12 v 72.351" /><path
             id="path96"
             style="fill:#af783c;fill-opacity:1;fill-rule:nonzero;stroke:none"
             d="m 4096.19,382.922 c 0,11.078 -0.43,19.777 -0.87,28.469 h 16.73 l 0.87,-17.172 h 0.65 c 5.87,10 15.64,19.34 33.24,19.34 14.13,0 24.99,-8.688 29.55,-21.079 h 0.44 c 3.26,6.079 7.61,10.43 11.95,13.692 6.3,4.777 13.04,7.387 23.03,7.387 14.13,0 34.77,-9.129 34.77,-45.629 v -61.711 h -18.68 v 59.32 c 0,20.43 -7.61,32.383 -22.82,32.383 -11.08,0 -19.34,-8.051 -22.82,-17.172 -0.87,-2.828 -1.51,-6.078 -1.51,-9.559 v -64.972 h -18.69 v 63.011 c 0,16.739 -7.39,28.692 -21.95,28.692 -11.74,0 -20.64,-9.57 -23.68,-19.121 -1.09,-2.621 -1.52,-6.09 -1.52,-9.352 v -63.23 h -18.69 v 76.703" /><path
             id="path98"
             style="fill:#af783c;fill-opacity:1;fill-rule:nonzero;stroke:none"
             d="m 4332.86,359.891 c -20.86,0.429 -44.54,-3.262 -44.54,-23.692 0,-12.597 8.25,-18.238 17.81,-18.238 13.9,0 22.81,8.687 25.86,17.598 0.65,2.171 0.87,4.339 0.87,6.082 z m 18.46,-28.461 c 0,-9.129 0.44,-18.039 1.53,-25.211 h -17.17 l -1.52,13.25 h -0.65 c -5.87,-8.25 -17.17,-15.641 -32.16,-15.641 -21.3,0 -32.16,14.992 -32.16,30.203 0,25.418 22.6,39.328 63.23,39.117 v 2.172 c 0,8.469 -2.39,24.34 -23.9,24.11 -9.99,0 -20.2,-2.821 -27.6,-7.821 l -4.34,12.821 c 8.69,5.429 21.51,9.129 34.76,9.129 32.16,0 39.98,-21.95 39.98,-42.809 v -39.32" /><path
             id="path100"
             style="fill:#af783c;fill-opacity:1;fill-rule:nonzero;stroke:none"
             d="m 4404.38,436.59 v -25.199 h 27.37 v -14.559 h -27.37 v -56.711 c 0,-13.039 3.69,-20.422 14.34,-20.422 5.21,0 8.26,0.43 11.08,1.301 l 0.87,-14.559 c -3.69,-1.3 -9.56,-2.613 -16.94,-2.613 -8.92,0 -16.09,3.051 -20.65,8.043 -5.21,5.859 -7.39,15.211 -7.39,27.59 v 57.371 h -16.3 v 14.559 h 16.3 v 19.558 l 18.69,5.641" /><path
             id="path102"
             style="fill:#af783c;fill-opacity:1;fill-rule:nonzero;stroke:none"
             d="m 4501.3,306.219 v 90.613 h -14.55 v 14.559 h 14.55 v 5 c 0,14.769 3.48,28.238 12.17,36.718 7.18,6.95 16.74,9.77 25.65,9.77 6.95,0 12.59,-1.52 16.3,-3.039 l -2.61,-14.77 c -2.83,1.301 -6.53,2.379 -12.17,2.379 -16.3,0 -20.43,-14.117 -20.43,-30.41 v -5.648 h 25.43 v -14.559 h -25.43 v -90.613 h -18.91" /><path
             id="path104"
             style="fill:#af783c;fill-opacity:1;fill-rule:nonzero;stroke:none"
             d="m 4571.95,358.578 c 0,-23.019 13.04,-40.406 31.72,-40.406 18.26,0 31.94,17.168 31.94,40.848 0,17.82 -8.91,40.199 -31.5,40.199 -22.39,0 -32.16,-20.86 -32.16,-40.641 z m 83.22,1.102 c 0,-38.899 -27.17,-55.852 -52.36,-55.852 -28.25,0 -50.41,20.863 -50.41,54.113 0,34.981 23.24,55.618 52.15,55.618 30.19,0 50.62,-21.95 50.62,-53.879" /><path
             id="path106"
             style="fill:#af783c;fill-opacity:1;fill-rule:nonzero;stroke:none"
             d="m 4679.31,378.57 c 0,12.399 -0.21,23.039 -0.87,32.821 h 16.73 l 0.88,-20.86 h 0.64 c 4.79,14.117 16.52,23.028 29.34,23.028 1.95,0 3.48,-0.219 5.22,-0.43 V 395.09 c -1.96,0.441 -3.91,0.441 -6.53,0.441 -13.47,0 -23.03,-10 -25.63,-24.34 -0.44,-2.613 -0.66,-5.871 -0.66,-8.91 v -56.062 h -19.12 v 72.351" /><path
             id="path108"
             style="fill:#af783c;fill-opacity:1;fill-rule:nonzero;stroke:none"
             d="m 4798.41,306.219 v 90.613 h -14.55 v 14.559 h 14.55 v 5 c 0,14.769 3.48,28.238 12.17,36.718 7.18,6.95 16.74,9.77 25.65,9.77 6.95,0 12.59,-1.52 16.29,-3.039 l -2.6,-14.77 c -2.84,1.301 -6.53,2.379 -12.17,2.379 -16.3,0 -20.43,-14.117 -20.43,-30.41 v -5.648 h 25.43 v -14.559 h -25.43 v -90.613 h -18.91" /><path
             id="path110"
             style="fill:#af783c;fill-opacity:1;fill-rule:nonzero;stroke:none"
             d="m 4859.92,378.57 c 0,12.399 -0.22,23.039 -0.87,32.821 h 16.73 l 0.88,-20.86 h 0.64 c 4.78,14.117 16.51,23.028 29.34,23.028 1.95,0 3.47,-0.219 5.21,-0.43 V 395.09 c -1.95,0.441 -3.91,0.441 -6.52,0.441 -13.47,0 -23.03,-10 -25.64,-24.34 -0.44,-2.613 -0.65,-5.871 -0.65,-8.91 v -56.062 h -19.12 v 72.351" /><path
             id="path112"
             style="fill:#af783c;fill-opacity:1;fill-rule:nonzero;stroke:none"
             d="m 4995.53,369.012 c 0.22,11.957 -5,30.859 -26.51,30.859 -19.55,0 -27.81,-17.59 -29.33,-30.859 z m -56.06,-13.692 c 0.44,-25.851 16.74,-36.5 36.07,-36.5 13.69,0 22.17,2.391 29.12,5.442 l 3.48,-13.692 c -6.74,-3.039 -18.48,-6.742 -35.21,-6.742 -32.37,0 -51.7,21.512 -51.7,53.231 0,31.73 18.68,56.5 49.31,56.5 34.55,0 43.46,-29.989 43.46,-49.321 0,-3.918 -0.22,-6.738 -0.65,-8.918 h -73.88" /><path
             id="path114"
             style="fill:#af783c;fill-opacity:1;fill-rule:nonzero;stroke:none"
             d="m 5104.42,369.012 c 0.21,11.957 -5,30.859 -26.51,30.859 -19.56,0 -27.82,-17.59 -29.33,-30.859 z m -56.07,-13.692 c 0.44,-25.851 16.74,-36.5 36.08,-36.5 13.69,0 22.17,2.391 29.12,5.442 l 3.48,-13.692 c -6.74,-3.039 -18.48,-6.742 -35.21,-6.742 -32.37,0 -51.71,21.512 -51.71,53.231 0,31.73 18.68,56.5 49.32,56.5 34.55,0 43.46,-29.989 43.46,-49.321 0,-3.918 -0.22,-6.738 -0.65,-8.918 h -73.89" /><path
             id="path116"
             style="fill:#af783c;fill-opacity:1;fill-rule:nonzero;stroke:none"
             d="m 5139.43,317.52 c 0,7.82 5.43,13.691 13.04,13.691 7.6,0 12.82,-5.652 12.82,-13.691 0,-7.821 -5.22,-13.692 -13.26,-13.692 -7.39,0 -12.6,5.871 -12.6,13.692" /><path
             id="path118"
             style="fill:#2d68af;fill-opacity:1;fill-rule:nonzero;stroke:none"
             d="m 1113.75,199.68 h 33.02 v -60.84 h 0.44 c 3.48,4.781 7.82,8.469 13.04,11.082 4.99,2.609 11.08,4.129 17.16,4.129 21.08,0 37.16,-14.563 37.16,-46.719 V 45.4102 h -33.03 v 58.4488 c 0,13.903 -4.78,23.461 -17.16,23.461 -8.7,0 -14.13,-5.64 -16.52,-11.718 -0.87,-1.961 -1.09,-4.793 -1.09,-7.172 V 45.4102 h -33.02 V 199.68" /><path
             id="path120"
             style="fill:#2d68af;fill-opacity:1;fill-rule:nonzero;stroke:none"
             d="m 1298.48,180.34 v -28.68 h 23.68 v -24.34 h -23.68 V 88.8711 c 0,-12.8203 3.26,-18.6797 13.04,-18.6797 4.56,0 6.73,0.207 9.77,0.8594 l 0.22,-24.9922 c -4.13,-1.5195 -12.17,-2.8281 -21.29,-2.8281 -10.65,0 -19.56,3.6992 -24.99,9.1289 -6.08,6.3008 -9.13,16.5195 -9.13,31.5117 V 127.32 h -14.12 v 24.34 h 14.12 v 19.781 l 32.38,8.899" /><path
             id="path122"
             style="fill:#2d68af;fill-opacity:1;fill-rule:nonzero;stroke:none"
             d="m 1399.98,180.34 v -28.68 h 23.68 v -24.34 h -23.68 V 88.8711 c 0,-12.8203 3.26,-18.6797 13.03,-18.6797 4.57,0 6.74,0.207 9.78,0.8594 l 0.22,-24.9922 c -4.13,-1.5195 -12.17,-2.8281 -21.3,-2.8281 -10.64,0 -19.55,3.6992 -24.98,9.1289 -6.09,6.3008 -9.13,16.5195 -9.13,31.5117 V 127.32 h -14.12 v 24.34 h 14.12 v 19.781 l 32.38,8.899" /><path
             id="path124"
             style="fill:#2d68af;fill-opacity:1;fill-rule:nonzero;stroke:none"
             d="m 1497.56,91.0508 c 0,-2.6211 0.22,-4.7891 0.65,-6.961 2.18,-8.9101 9.78,-15.6406 19.34,-15.6406 14.34,0 22.82,11.9414 22.82,29.9805 0,16.9493 -7.61,29.7613 -22.39,29.7613 -9.34,0 -17.59,-6.949 -19.77,-16.722 -0.43,-1.739 -0.65,-3.918 -0.65,-5.867 z m -33.02,24.9802 c 0,13.899 -0.44,25.641 -0.87,35.629 h 28.68 l 1.52,-14.769 h 0.43 c 7.82,11.078 19.99,17.16 35.42,17.16 23.25,0 44.11,-20.199 44.11,-54.1018 0,-38.6797 -24.56,-56.9297 -48.24,-56.9297 -12.82,0 -22.81,5.211 -27.6,12.1719 h -0.43 V 2.39062 h -33.02 V 116.031" /><path
             id="path126"
             style="fill:#2d68af;fill-opacity:1;fill-rule:nonzero;stroke:none"
             d="m 1614.07,62.7891 c 0,11.7304 8.03,19.9921 19.33,19.9921 11.52,0 19.12,-8.0312 19.34,-19.9921 0,-11.2969 -7.61,-19.7696 -19.55,-19.7696 -11.3,0 -19.12,8.4727 -19.12,19.7696 z m 0,70.1909 c 0,11.731 8.03,19.989 19.33,19.989 11.52,0 19.12,-8.039 19.34,-19.989 0,-11.3 -7.61,-19.781 -19.55,-19.781 -11.3,0 -19.12,8.481 -19.12,19.781" /><path
             id="path128"
             style="fill:#2d68af;fill-opacity:1;fill-rule:nonzero;stroke:none"
             d="m 1684.7,36.9297 46.51,157.5313 h 21.94 l -46.5,-157.5313 h -21.95" /><path
             id="path130"
             style="fill:#2d68af;fill-opacity:1;fill-rule:nonzero;stroke:none"
             d="m 1778.37,36.9297 46.51,157.5313 h 21.94 l -46.5,-157.5313 h -21.95" /><path
             id="path132"
             style="fill:#2d68af;fill-opacity:1;fill-rule:nonzero;stroke:none"
             d="m 1904.64,151.66 8.69,-43.672 c 1.96,-10.8669 4.14,-22.5974 5.87,-34.7692 h 0.66 c 1.95,12.1718 5.21,24.121 7.6,34.5512 l 11.29,43.89 h 26.08 l 10.65,-42.371 c 3.04,-12.1679 5.86,-23.8984 7.82,-36.0702 h 0.44 c 1.52,11.9609 3.69,24.121 6.29,36.2932 l 8.91,42.148 h 32.38 L 1998.73,45.4102 h -30.85 l -10,37.1601 c -2.83,10.4297 -4.78,19.9887 -6.96,33.2387 h -0.43 c -1.96,-13.25 -4.13,-23.2504 -6.74,-33.0278 l -10.64,-37.371 h -31.07 L 1870.96,151.66 h 33.68" /><path
             id="path134"
             style="fill:#2d68af;fill-opacity:1;fill-rule:nonzero;stroke:none"
             d="m 2095.46,151.66 8.7,-43.672 c 1.95,-10.8669 4.13,-22.5974 5.86,-34.7692 h 0.66 c 1.95,12.1718 5.21,24.121 7.6,34.5512 l 11.3,43.89 h 26.07 l 10.65,-42.371 c 3.04,-12.1679 5.86,-23.8984 7.82,-36.0702 h 0.44 c 1.52,11.9609 3.69,24.121 6.29,36.2932 l 8.91,42.148 h 32.38 L 2189.55,45.4102 h -30.85 l -10,37.1601 c -2.83,10.4297 -4.78,19.9887 -6.96,33.2387 h -0.43 c -1.96,-13.25 -4.13,-23.2504 -6.73,-33.0278 l -10.65,-37.371 h -31.07 L 2061.78,151.66 h 33.68" /><path
             id="path136"
             style="fill:#2d68af;fill-opacity:1;fill-rule:nonzero;stroke:none"
             d="m 2286.28,151.66 8.7,-43.672 c 1.96,-10.8669 4.13,-22.5974 5.86,-34.7692 h 0.66 c 1.95,12.1718 5.21,24.121 7.61,34.5512 l 11.3,43.89 h 26.07 l 10.64,-42.371 c 3.05,-12.1679 5.87,-23.8984 7.83,-36.0702 h 0.44 c 1.51,11.9609 3.69,24.121 6.29,36.2932 l 8.91,42.148 h 32.37 L 2380.38,45.4102 h -30.86 l -9.99,37.1601 c -2.84,10.4297 -4.79,19.9887 -6.96,33.2387 h -0.44 c -1.95,-13.25 -4.13,-23.2504 -6.72,-33.0278 l -10.66,-37.371 h -31.06 L 2252.61,151.66 h 33.67" /><path
             id="path138"
             style="fill:#2d68af;fill-opacity:1;fill-rule:nonzero;stroke:none"
             d="m 2437.35,63.0117 c 0,11.9492 8.04,20.1992 19.56,20.1992 11.29,0 19.12,-8.0312 19.34,-20.1992 0,-11.5195 -7.83,-19.9922 -19.78,-19.9922 -11.08,0 -19.12,8.4727 -19.12,19.9922" /><path
             id="path140"
             style="fill:#2d68af;fill-opacity:1;fill-rule:nonzero;stroke:none"
             d="m 2517.98,45.4102 h 33.0312 v 154.27 H 2517.98 Z" /><path
             id="path142"
             style="fill:#2d68af;fill-opacity:1;fill-rule:nonzero;stroke:none"
             d="m 2627.51,98.6406 c 0,-18.25 7.61,-31.9297 21.73,-31.9297 13.04,0 21.08,12.8086 21.08,32.1485 0,15.6406 -6.09,31.7306 -21.08,31.7306 -15.64,0 -21.73,-16.301 -21.73,-31.9494 z m 76.92,1.0977 c 0,-38.8985 -27.59,-56.7188 -56.06,-56.7188 -31.07,0 -54.97,20.4297 -54.97,54.75 0,34.5505 22.6,56.5005 56.93,56.5005 32.38,0 54.1,-22.379 54.1,-54.5317" /><path
             id="path144"
             style="fill:#2d68af;fill-opacity:1;fill-rule:nonzero;stroke:none"
             d="m 2814.85,108.43 c 0,1.949 -0.22,4.121 -0.66,6.07 -2.38,8.691 -8.69,14.559 -17.81,14.559 -12.17,0 -21.73,-10.86 -21.73,-30.1996 0,-15.8594 7.83,-28.2383 21.52,-28.2383 8.69,0 15.42,5.6406 17.59,13.25 0.87,2.6094 1.09,6.0781 1.09,8.9101 z m 33.03,-47.5902 c 0,-20.4296 -4.13,-37.1601 -16.3,-47.8007 C 2820.06,3.03906 2804.2,0 2788.56,0 c -14.13,0 -28.68,2.82031 -38.24,8.03906 l 6.51,25.19924 c 6.74,-3.9063 18.25,-8.0274 30.86,-8.0274 15.64,0 27.6,8.25 27.6,28.0196 v 6.7383 h -0.44 c -6.3,-8.6876 -16.52,-13.6876 -28.68,-13.6876 -26.29,0 -44.98,21.2891 -44.98,51.7188 0,34.32 21.95,56.051 48.24,56.051 14.55,0 23.68,-6.301 29.11,-15.211 h 0.44 l 1.08,12.82 h 28.69 c -0.43,-6.949 -0.87,-15.859 -0.87,-31.719 V 60.8398" /><path
             id="path146"
             style="fill:#2d68af;fill-opacity:1;fill-rule:nonzero;stroke:none"
             d="m 2924.17,98.6406 c 0,-18.25 7.61,-31.9297 21.74,-31.9297 13.03,0 21.08,12.8086 21.08,32.1485 0,15.6406 -6.09,31.7306 -21.08,31.7306 -15.64,0 -21.74,-16.301 -21.74,-31.9494 z m 76.93,1.0977 c 0,-38.8985 -27.6,-56.7188 -56.07,-56.7188 -31.06,0 -54.97,20.4297 -54.97,54.75 0,34.5505 22.6,56.5005 56.94,56.5005 32.37,0 54.1,-22.379 54.1,-54.5317" /><path
             id="path148"
             style="fill:#2d68af;fill-opacity:1;fill-rule:nonzero;stroke:none"
             d="m 3108.26,110.602 c 0,8.027 -3.48,21.507 -18.68,21.507 -13.91,0 -19.57,-12.82 -20.43,-21.507 z M 3069.37,88 c 0.86,-13.6914 14.55,-20.2109 29.98,-20.2109 11.3,0 20.43,1.5195 29.34,4.5625 l 4.34,-22.3828 c -10.87,-4.5586 -24.12,-6.7383 -38.46,-6.7383 -36.07,0 -56.71,20.8593 -56.71,54.1093 0,26.9492 16.72,56.7112 53.67,56.7112 34.32,0 47.37,-26.731 47.37,-53.012 0,-5.6601 -0.65,-10.6484 -1.09,-13.039 h -68.44" /><path
             id="path150"
             style="fill:#2d68af;fill-opacity:1;fill-rule:nonzero;stroke:none"
             d="m 3213.46,91.0508 c 0,-2.6211 0.23,-4.7891 0.66,-6.961 2.16,-8.9101 9.77,-15.6406 19.33,-15.6406 14.35,0 22.81,11.9414 22.81,29.9805 0,16.9493 -7.59,29.7613 -22.37,29.7613 -9.34,0 -17.61,-6.949 -19.77,-16.722 -0.43,-1.739 -0.66,-3.918 -0.66,-5.867 z m -33.03,24.9802 c 0,13.899 -0.43,25.641 -0.86,35.629 h 28.68 l 1.52,-14.769 h 0.44 c 7.81,11.078 19.98,17.16 35.41,17.16 23.25,0 44.11,-20.199 44.11,-54.1018 0,-38.6797 -24.55,-56.9297 -48.23,-56.9297 -12.82,0 -22.82,5.211 -27.6,12.1719 h -0.44 V 2.39062 h -33.03 V 116.031" /><path
             id="path152"
             style="fill:#2d68af;fill-opacity:1;fill-rule:nonzero;stroke:none"
             d="m 3331.92,74.0898 c 6.08,-3.6914 18.68,-7.8203 28.47,-7.8203 9.99,0 14.12,3.2617 14.12,8.6914 0,5.6602 -3.26,8.25 -15.43,12.3789 -22.16,7.3985 -30.64,19.3512 -30.42,31.9492 0,19.992 16.95,34.981 43.24,34.981 12.38,0 23.25,-3.04 29.77,-6.301 l -5.65,-22.809 c -4.78,2.602 -14.13,6.082 -23.04,6.082 -8.03,0 -12.59,-3.262 -12.59,-8.48 0,-5.211 4.12,-7.821 17.16,-12.383 20.21,-6.949 28.46,-17.379 28.68,-32.8087 0,-19.9922 -15.42,-34.5508 -45.84,-34.5508 -13.91,0 -26.29,3.2617 -34.34,7.6094 l 5.87,23.4609" /><path
             id="path154"
             style="fill:#2d68af;fill-opacity:1;fill-rule:nonzero;stroke:none"
             d="m 3443.63,63.0117 c 0,11.9492 8.04,20.1992 19.56,20.1992 11.3,0 19.12,-8.0312 19.33,-20.1992 0,-11.5195 -7.82,-19.9922 -19.77,-19.9922 -11.08,0 -19.12,8.4727 -19.12,19.9922" /><path
             id="path156"
             style="fill:#2d68af;fill-opacity:1;fill-rule:nonzero;stroke:none"
             d="m 3604.01,48.2305 c -5.87,-2.8203 -16.94,-5 -29.55,-5 -34.33,0 -56.28,21.0898 -56.28,54.3281 0,31.0704 21.3,56.4924 60.84,56.4924 8.69,0 18.25,-1.52 25.2,-4.129 l -5.21,-24.551 c -3.91,1.738 -9.78,3.258 -18.47,3.258 -17.38,0 -28.68,-12.387 -28.46,-29.7696 0,-19.3399 13.03,-29.7696 29.12,-29.7696 7.82,0 13.9,1.3086 18.89,3.4805 l 3.92,-24.3398" /><path
             id="path158"
             style="fill:#2d68af;fill-opacity:1;fill-rule:nonzero;stroke:none"
             d="m 3669.66,98.6406 c 0,-18.25 7.6,-31.9297 21.72,-31.9297 13.05,0 21.09,12.8086 21.09,32.1485 0,15.6406 -6.09,31.7306 -21.09,31.7306 -15.64,0 -21.72,-16.301 -21.72,-31.9494 z m 76.92,1.0977 c 0,-38.8985 -27.6,-56.7188 -56.06,-56.7188 -31.07,0 -54.98,20.4297 -54.98,54.75 0,34.5505 22.6,56.5005 56.94,56.5005 32.37,0 54.1,-22.379 54.1,-54.5317" /><path
             id="path160"
             style="fill:#2d68af;fill-opacity:1;fill-rule:nonzero;stroke:none"
             d="m 3788.77,117.762 c 0,13.269 -0.43,24.34 -0.86,33.898 h 28.02 l 1.31,-14.34 h 0.66 c 4.56,6.961 14.12,16.95 32.15,16.95 13.91,0 24.55,-7.168 29.12,-18.25 h 0.43 c 4.13,5.652 8.7,10 13.91,13.031 5.86,3.258 12.38,5.219 20.21,5.219 20.42,0 35.85,-14.34 35.85,-46.282 V 45.4102 h -32.16 v 57.8008 c 0,15.418 -4.99,24.34 -15.65,24.34 -7.82,0 -13.03,-5.219 -15.42,-11.52 -0.65,-2.39 -1.09,-5.652 -1.09,-8.48 V 45.4102 h -32.16 v 59.7618 c 0,13.25 -4.77,22.379 -15.42,22.379 -8.48,0 -13.48,-6.52 -15.43,-11.742 -1.09,-2.61 -1.31,-5.637 -1.31,-8.477 V 45.4102 h -32.16 v 72.3518" /><path
             id="path162"
             style="fill:#2d68af;fill-opacity:1;fill-rule:nonzero;stroke:none"
             d="m 3987.64,36.9297 46.5,157.5313 h 21.95 L 4009.58,36.9297 h -21.94" /><path
             id="path164"
             style="fill:#171717;fill-opacity:1;fill-rule:evenodd;stroke:none"
             d="m 3422.76,3399.66 c -78.19,-364.28 -403.14,-638.77 -790.2,-638.77 -445.14,0 -808.2,363.05 -808.2,808.2 0,445.14 363.06,808.21 808.2,808.21 384.58,0 707.86,-271.01 788.69,-631.8 -81.59,383.23 -423.15,672.23 -830.09,672.23 -467.4,0 -848.62,-381.22 -848.62,-848.62 0,-467.42 381.22,-848.63 848.62,-848.63 409.41,0 752.67,292.48 831.6,679.18 v 0" /><path
             id="path166"
             style="fill:#171717;fill-opacity:1;fill-rule:evenodd;stroke:none"
             d="m 2377.71,3599.14 c -9.96,1.21 2.9,8.69 8.35,18.11 5.99,10.35 4.83,23.28 11.12,21.37 6.3,-1.9 2.8,-9.14 -1.52,-21.01 -3.67,-10.11 -14.28,-18.91 -17.95,-18.47 z m 254.42,358.93 c 21.08,9.76 28.45,-5.37 21.17,-7.8 -7.42,-2.48 -7.48,11.35 -21.17,7.8 z m 86.45,52.59 c 5.88,-1.75 11.53,-11.93 12.76,-22.92 0.12,-1.02 7.69,1.58 7.76,3.98 0.47,17.69 -14.63,26.01 -18.59,25.65 -9.09,-0.82 -6.53,-5.34 -1.93,-6.71 z M 2549.95,4003 c 2.74,0.6 6.63,-4.06 5.43,-10.6 -1.69,-9.08 -0.96,-14.77 5.33,-14.79 1.04,0 2.16,0.19 2.56,2.55 3.01,18.09 -6.38,31.36 -10.23,32.35 -8.85,2.26 -7.77,-10.51 -3.09,-9.51 z m 39.73,-42.78 c -23.16,1.73 -24.75,-15.01 -17.08,-14.74 7.82,0.28 3.02,13.25 17.08,14.74 z m 232.33,-89.88 c 5.23,5.48 7.92,-9.48 21.98,-18.35 11.15,-7.04 21.99,-1.83 24.81,-16.08 2.02,-10.21 -4.36,-21.3 -12.93,-19.86 -14.92,2.52 -49.33,38.05 -33.86,54.29 z m -86.09,291.27 c -2.66,-7.98 -13.65,-14.63 -6.68,-20.22 6.99,-5.59 10.98,7.81 25.02,12.83 3.63,1.3 20.5,-0.54 23.61,7.49 1.36,3.49 -8.7,7.48 -14.69,13.21 -5.99,5.72 -11.86,10.81 -17.49,10.45 -14.55,-0.93 -7.4,-16.69 -9.77,-23.76 z M 2478.84,3149.09 c 17.95,-28.26 81.21,-147.24 -29.68,-162.67 -37.09,-5.18 -96.8,21.56 -154.66,35.72 -51.98,12.71 -104.77,20.25 -134.31,28.55 -17.79,4.98 -25.22,11.37 -26.77,18.83 -4.1,19.75 21.6,47.44 22.9,70.82 1.3,23.4 -8.53,35.55 -16.58,54.63 -8.07,19.12 -10.16,33.44 -3.71,41.64 5.02,6.37 15.22,9.04 31.81,7.42 21.04,-2.07 46.44,2.23 60.09,10.57 22.99,14.02 33.8,42.75 23.46,77.38 0,-33.88 -11.11,-46.72 -38.97,-62.2 -26.25,-14.61 -66.77,-2.8 -85.39,-18.97 -22.41,-19.43 8,-69.63 5.51,-106.48 -1.91,-28.32 -31.46,-60.22 -18.28,-88.62 13.25,-28.57 75.07,-31.68 139.52,-45.15 91.62,-19.18 145.04,-52.52 187.37,-54.1 61.75,-2.29 71.21,61.09 168.17,61.95 28.27,1.48 55.94,2.36 83.57,2.71 31.31,0.39 62.58,0.14 94.69,-0.64 64.52,-1.54 42.34,-35.22 84.2,-56.74 35.32,-18.14 98.82,-10.98 114.03,3.52 20.55,19.61 75.75,66.77 118.03,88.08 52.74,26.58 176.52,72.31 86.64,128.05 -20.93,13.01 -70.46,26.74 -74.62,121.8 -18.75,-16.66 -16.58,-105.24 35.75,-122.82 58.44,-19.63 94.95,-52.5 -13.7,-89.64 -71.94,-24.61 -84.16,-32.19 -141.12,-79.59 -57.62,-47.97 -143.13,-28.93 -128.2,72.07 7.78,52.61 12.25,96.09 -0.84,141.83 -6.39,22.35 -9.57,51 -5.21,71.1 8.5,39.08 29.66,50.85 50.39,13.32 13.02,-23.54 17.57,-51.08 64.17,-53.32 73.21,-3.5 87.71,70.74 111.11,74.12 15.6,2.26 31.2,46.42 19.32,117.87 -12.73,76.5 -57.74,197.27 -115.45,258.52 -47.98,50.9 -78.21,95.53 -97.22,159.24 -15.98,53.52 -24.9,105.61 -21.61,155.41 4.26,64.53 -31.53,154.32 -88.49,196.58 -35.66,26.44 -91.59,40.6 -142.21,40.05 -28.38,-0.31 -55.1,-4.46 -75.63,-15.6 -84.5,-45.87 -96.29,-111.38 -95.03,-186.17 1.18,-70.24 3.57,-150.4 11.56,-226.66 -9.45,-35.01 -58.65,-101.39 -90.14,-141.78 -42.35,-41.83 -63.73,-122.68 -91.14,-193.32 -14.62,-37.66 -39.24,-54.67 -41.31,-103.09 -0.58,-13.53 -0.11,-48.57 12.83,-38.55 49.53,38.32 111.52,-58.28 205.15,-205.67 z m 17.9,-1.95 c 46.76,4.82 52.93,54.32 30.91,75.92 -18.14,17.79 -118.25,92.11 -144.37,121.33 -12.13,13.55 -28.56,20.21 -35.52,35.44 -16.01,35.06 -27.23,85.1 -6.92,121.04 3.68,6.49 6.04,3.58 3.23,-9.96 -15.95,-76.66 33.97,-139.28 44.96,-107.17 7.59,22.19 0.55,61.88 4.61,93.4 7.18,55.78 57.96,162.9 80.26,169.02 -34.4,63.72 40.34,113.59 39.43,169.52 -0.6,36.36 31.94,-44.72 64.64,-61.91 36.53,-19.2 76.67,36.18 133.66,64.27 16.12,7.95 36.79,17.09 35.4,23.87 -6.69,32.69 -74.85,-40.34 -135.71,-42.8 -27.78,-1.11 -38.09,5.46 -48.82,15.82 -32.45,31.36 3.3,5.19 51.53,13.91 21.43,3.89 28.64,7.45 51.39,16.64 22.75,9.2 48.75,22.81 74.48,29.8 17.92,4.87 16.43,18.33 9.46,22.38 -4.01,2.32 -9.96,2.11 -14.68,-6.04 -11.04,-19.1 -62.98,-30.14 -79.18,-35.09 -20.81,-6.37 -43.83,-12.32 -74.41,-11.07 -46.47,1.88 -35.64,23.18 -68.87,42.24 -9.74,5.58 -7.11,20.26 5.84,33.2 6.78,6.8 25.37,10.62 34.59,26.07 1.3,2.16 13.18,14.59 22.5,21.02 3.22,2.24 3.5,58.96 -25.61,60.13 -24.73,1 -31.76,-18.17 -30.72,-37.27 1.03,-19.09 11.15,-34.84 17.88,-34.76 12.98,0.12 0.83,-14.2 -6.28,-16.52 -10.8,-3.51 -25.6,42.52 -23.9,64.61 1.78,23.02 13.77,63.79 42.9,63 26.24,-0.72 45.25,-33.61 44.3,-90.34 -0.17,-9.62 42.53,4.59 56.79,-10.46 10.19,-10.78 -34.92,100.51 65.52,108.17 26.47,-5.06 51.89,-13.87 62.45,-74.71 -3.9,-6.33 6.58,-48.77 -9.75,-53.81 -19.94,-6.15 -32.24,0.9 -20.72,19.88 7.89,19.07 0.19,67.57 -40.15,64.65 -40.35,-2.9 -34.99,-74.5 -23.94,-75.92 11.07,-1.41 38.92,-21.17 58.36,-24.97 63.83,-12.42 16.93,-49 25.22,-93.29 9.36,-50.02 42.3,-36.81 71.92,-169.27 6.18,-8.06 30.71,-15.7 54.61,-117.45 21.49,-91.56 -8.94,-158.15 42.75,-152.68 11.64,1.23 28.65,4.5 36.06,30.43 19.34,67.82 -9.7,148.6 -39.01,203.12 -17.08,31.79 -33.15,53.44 -41.65,60.88 33.61,-19.86 76.56,-83.29 86.46,-130.38 13.02,-61.84 22.31,-88.03 2.61,-153.44 11.37,-5.69 39.66,-17.7 39.66,-31.19 -29.46,24.22 -119.66,28.51 -121.98,-29.4 -15.39,-0.31 -27.02,-1.56 -36.92,-13.32 -36.26,-43.03 -2.6,-129.43 -6.27,-175.78 -3.24,-40.78 -14.54,-81.19 -20.92,-122.15 -21.59,0.82 -19.48,16.62 -12.56,38.79 6.11,19.55 15.97,44.06 16.61,67.56 0.59,21.27 -1.74,34.57 -7.1,37.87 -5.36,3.3 -13.77,-3.4 -25.37,-22.09 -24.76,-39.88 -78.41,-57.42 -128.5,-63.69 -50.1,-6.29 -96.67,-1.31 -121.33,26.31 -8.44,9.45 -22.42,-2.58 -24.08,-5.08 -2.23,-3.36 8.16,-9.88 15.99,-24.26 11.44,-20.97 22.31,-52.81 -4.78,-67.34 0.32,73.87 -23.06,78.18 -46.96,123.32 v 0" /></g></g></g></g></svg>